<?xml version="1.0" standalone="no"?>
<!DOCTYPE svg PUBLIC "-//W3C//DTD SVG 1.1//EN" "http://www.w3.org/Graphics/SVG/1.1/DTD/svg11.dtd" >
<svg xmlns="http://www.w3.org/2000/svg">
<metadata></metadata>
<defs>
<font id="conduit_itc_stdextra_light" horiz-adv-x="1054" >
<font-face units-per-em="2048" ascent="1438" descent="-610" />
<missing-glyph horiz-adv-x="350" />
<glyph unicode="&#xfb01;" horiz-adv-x="946" d="M88 733v41q0 21 21 21h55q20 0 20 20v150q0 171 117 268q67 54 160 72q22 5 22 -17v-47q0 -16 -18 -22q-79 -21 -127.5 -84t-48.5 -150v-170q0 -20 20 -20h158q20 0 20 -21v-41q0 -20 -20 -20h-158q-20 0 -20 -21v-672q0 -20 -21 -20h-63q-21 0 -21 20v672q0 21 -20 21 h-55q-21 0 -21 20zM674 1237q0 31 20.5 52.5t50.5 21.5q31 0 52.5 -21.5t21.5 -52.5t-21.5 -53.5t-52.5 -22.5q-30 0 -50.5 22.5t-20.5 53.5zM694 20v852q0 21 21 21h63q21 0 21 -21v-852q0 -20 -21 -20h-63q-21 0 -21 20z" />
<glyph unicode="&#xfb02;" horiz-adv-x="946" d="M88 733v41q0 21 21 21h55q20 0 20 20v125q0 155 97 250.5t249 95.5h248q21 0 21 -20v-1246q0 -20 -21 -20h-63q-21 0 -21 20v1168q0 14 -14 14h-150q-104 0 -172.5 -68.5t-68.5 -172.5v-146q0 -20 20 -20h158q20 0 20 -21v-41q0 -20 -20 -20h-158q-20 0 -20 -21v-672 q0 -20 -21 -20h-63q-21 0 -21 20v672q0 21 -20 21h-55q-21 0 -21 20z" />
<glyph unicode="&#xfb03;" horiz-adv-x="1488" d="M88 733v41q0 21 21 21h55q20 0 20 20v150q0 155 97 250.5t249 95.5q164 0 250 -119q10 -16 25 2q78 90 199 111q22 5 22 -17v-47q0 -16 -18 -22q-79 -21 -128 -84t-49 -150v-170q0 -20 21 -20h158q20 0 20 -21v-41q0 -20 -20 -20h-158q-21 0 -21 -21v-672q0 -20 -20 -20 h-63q-21 0 -21 20v672q0 21 -20 21h-398q-20 0 -20 -21v-672q0 -20 -21 -20h-63q-21 0 -21 20v672q0 21 -20 21h-55q-21 0 -21 20zM289 815q0 -20 20 -20h398q20 0 20 20v150q0 46 14 104q5 16 -10 39q-74 119 -201 119q-104 0 -172.5 -69t-68.5 -173v-170zM1217 1237 q0 31 20.5 52.5t50.5 21.5q31 0 52.5 -21.5t21.5 -52.5t-21.5 -53.5t-52.5 -22.5q-30 0 -50.5 22.5t-20.5 53.5zM1237 20v852q0 21 20 21h64q20 0 20 -21v-852q0 -20 -20 -20h-64q-20 0 -20 20z" />
<glyph unicode="&#xfb04;" horiz-adv-x="1488" d="M88 733v41q0 21 21 21h55q20 0 20 20v150q0 155 97 250.5t249 95.5q88 0 155 -35t103 -96q11 -17 27 2q96 104 258 104h248q20 0 20 -20v-1246q0 -20 -20 -20h-64q-20 0 -20 20v1168q0 14 -14 14h-150q-104 0 -173 -68.5t-69 -172.5v-146q0 -20 21 -20h158q20 0 20 -21 v-41q0 -20 -20 -20h-158q-21 0 -21 -21v-672q0 -20 -20 -20h-63q-21 0 -21 20v672q0 21 -20 21h-398q-20 0 -20 -21v-672q0 -20 -21 -20h-63q-21 0 -21 20v672q0 21 -20 21h-55q-21 0 -21 20zM289 815q0 -20 20 -20h398q20 0 20 20v150q0 46 14 104q5 16 -10 39 q-74 119 -201 119q-104 0 -172.5 -69t-68.5 -173v-170z" />
<glyph horiz-adv-x="2048" />
<glyph horiz-adv-x="2048" />
<glyph unicode="&#xd;" horiz-adv-x="2048" />
<glyph unicode=" "  horiz-adv-x="350" />
<glyph unicode="&#x09;" horiz-adv-x="350" />
<glyph unicode="&#xa0;" horiz-adv-x="350" />
<glyph unicode="!" horiz-adv-x="600" d="M209 51q0 38 27 65t65 27t65 -27t27 -65t-27 -65t-65 -27t-65 27t-27 65zM246 752v514q0 20 20 20h66q20 0 20 -20v-510l-33 -361q-2 -12 -5 -16t-13 -4q-17 0 -20 20z" />
<glyph unicode="&#x22;" horiz-adv-x="577" d="M90 1282q0 23 21 23h92q20 0 20 -23l-37 -295q-3 -18 -20 -18h-12q-18 0 -21 18zM328 1282q0 23 20 23h88q21 0 21 -23l-37 -295q-3 -18 -21 -18h-8q-17 0 -20 18z" />
<glyph unicode="#" horiz-adv-x="1163" d="M109 403q0 11 14 52q6 20 27 20h118q18 0 21 17l84 294q0 25 -21 25h-125q-16 0 -16 10q0 7 12 51q6 21 27 21h137q18 0 21 16l104 363q3 14 20 14h50q12 0 16 -6t4 -20q-98 -342 -98 -349q0 -18 22 -18h265q17 0 20 16l104 363q3 14 21 14h49q21 0 21 -26 q-50 -177 -87 -306q-12 -40 -12 -43q0 -18 23 -18h114q17 0 17 -12q0 -9 -14 -50q-6 -20 -27 -20h-125q-19 0 -21 -12q-83 -299 -83 -305q0 -19 22 -19h133q17 0 17 -12q0 -3 -15 -49q-6 -21 -26 -21h-146q-16 0 -22 -18l-103 -361q-3 -14 -20 -14h-49q-23 0 -23 18 q0 6 98 351q0 24 -20 24h-262q-19 0 -21 -12l-106 -367q-3 -14 -21 -14h-49q-22 0 -22 18q0 5 98 351q0 24 -21 24h-108q-16 0 -16 10zM387 494q0 -8 6.5 -13.5t16.5 -5.5h262q17 0 20 17l86 294q0 25 -20 25h-266q-19 0 -21 -12z" />
<glyph unicode="$" d="M160 133q0 13 12 19l53 28q4 2 11 2q9 0 14 -8q87 -113 211 -113q18 0 18 19v514q0 26 -22 37q-55 27 -91 47.5t-77 52.5t-65 65.5t-40 82t-16 106.5q0 131 79.5 218t211.5 104q20 3 20 24v70q0 20 21 20h57q21 0 21 -20v-70q0 -19 22 -22q85 -8 158 -54 q25 -15 59.5 -49.5t34.5 -48.5q0 -11 -14 -18l-52 -27q-8 -4 -14 -4q-7 0 -10 6q-28 40 -82 74.5t-92 34.5q-10 0 -10 -19v-481q0 -24 20 -33q59 -27 97.5 -48.5t82 -55.5t68.5 -70.5t42 -90t17 -118.5q0 -134 -84 -223t-223 -102q-20 -3 -20 -23v-68q0 -20 -21 -20h-57 q-21 0 -21 20v68q0 21 -18 21q-134 0 -225 67q-27 20 -51.5 45.5t-24.5 40.5zM279 985q0 -139 153 -215q32 -16 37 -16q10 0 10 14v436q0 17 -12 17q-87 -13 -137.5 -76.5t-50.5 -159.5zM578 82q0 -16 14 -16h8q88 17 141.5 83t53.5 158q0 90 -49 148t-136 104 q-2 1 -10.5 5.5t-11.5 4.5q-10 0 -10 -16v-471z" />
<glyph unicode="%" horiz-adv-x="1013" d="M80 911v205q0 77 50 125.5t134 48.5t134.5 -48.5t50.5 -125.5v-205q0 -77 -50.5 -125.5t-134.5 -48.5t-134 48.5t-50 125.5zM174 911q0 -42 24 -66t66 -24q44 0 66 25t22 65v205q0 43 -23.5 66.5t-64.5 23.5t-65.5 -24.5t-24.5 -65.5v-205zM183.5 8q-5.5 8 0.5 21 l533 1245q6 12 18 12h49q14 0 19.5 -8t-0.5 -21l-533 -1245q-6 -12 -18 -12h-49q-14 0 -19.5 8zM541 174v205q0 77 50 125.5t134 48.5t134 -48.5t50 -125.5v-205q0 -77 -50 -125.5t-134 -48.5t-134 48.5t-50 125.5zM635 174q0 -42 24 -66t66 -24q44 0 66 25t22 65v205 q0 43 -23.5 66.5t-64.5 23.5t-65.5 -24.5t-24.5 -65.5v-205z" />
<glyph unicode="&#x26;" horiz-adv-x="1290" d="M147 961q0 162 93.5 256t257.5 94q158 0 253 -94t95 -252v-45q0 -90 -68 -155.5t-186 -119.5q-8 -3 -8 -10q0 -4 4 -7.5t11 -8t9 -5.5q46 -31 92 -72.5t74.5 -72.5t73.5 -82q10 -10 14 -10q9 0 15 18q20 53 37 90.5t46 80t61.5 68t80.5 43t106 17.5h15q20 0 20 -20v-62 q0 -20 -20 -20h-15q-44 0 -79.5 -15.5t-58.5 -36.5t-46 -60t-35.5 -68.5t-32.5 -80.5q-7 -17 -10 -26q-4 -12 -4 -16q0 -9 10 -19q126 -133 277 -180q14 -6 14 -20v-68q0 -22 -16 -22q-14 0 -66 18q-127 43 -256 172q-6 6 -12 6q-3 0 -10 -10q-50 -88 -124.5 -137 t-195.5 -49h-65q-155 0 -250.5 94.5t-95.5 249.5v53q0 149 204 256q9 5 9 10q0 4 -9 10q-209 125 -209 308zM252 983q0 -98 52 -158.5t161 -122.5q6 -4 18 -4q9 0 27 7q54 24 90 44t71 49t52.5 65.5t17.5 80.5v41q0 103 -71 172.5t-172 69.5q-104 0 -175 -70t-71 -174z M256 307q0 -108 67.5 -177t174.5 -69h65q92 0 149 45.5t99 129.5q4 12 4 18q0 14 -10 27q-67 78 -99 113.5t-95.5 91t-125.5 89.5q-15 9 -22 9q-5 0 -17 -4q-80 -33 -135 -89t-55 -120v-64z" />
<glyph unicode="'" horiz-adv-x="329" d="M90 1282q0 23 21 23h92q20 0 20 -23l-37 -295q-3 -18 -20 -18h-12q-18 0 -21 18z" />
<glyph unicode="(" horiz-adv-x="675" d="M221 -43v1206q0 94 41 169.5t115 121.5q84 49 131 49q14 0 14 -20v-47q0 -18 -16 -21q-84 -20 -132 -82.5t-48 -148.5v-1252q0 -85 48 -148.5t132 -86.5q16 -3 16 -21v-47q0 -22 -14 -22q-16 0 -53 14q-109 38 -171.5 128t-62.5 208z" />
<glyph unicode=")" horiz-adv-x="675" d="M154 -324q0 18 16 21q84 23 132 86.5t48 148.5v1252q0 85 -47.5 146.5t-132.5 84.5q-16 3 -16 21v47q0 13 5 16.5t21 3.5q130 -34 202.5 -122.5t72.5 -217.5v-1206q0 -183 -131 -281q-29 -22 -78.5 -45.5t-75.5 -23.5q-16 0 -16 22v47z" />
<glyph unicode="*" horiz-adv-x="796" d="M80 961q0 10 14 16l230 98q14 6 14 17q0 12 -14 20l-230 107q-14 6 -14 16q0 4 4 12l29 47q7 13 16 13q3 0 14 -7l199 -149q9 -6 16 -6q17 0 17 24l-27 248q0 23 21 23h55q20 0 20 -23l-28 -248q0 -24 16 -24q8 0 17 6l210 149q7 7 15 7q10 0 16 -13l29 -47q4 -8 4 -12 q0 -9 -14 -16l-240 -107q-16 -6 -16 -18q0 -13 16 -19l240 -100q14 -7 14 -17q0 -4 -4 -12l-29 -47q-9 -12 -16 -12q-9 0 -15 6l-208 145q-9 6 -17 6q-16 0 -16 -24l31 -254q0 -23 -21 -23h-59q-21 0 -21 23l31 254q0 24 -17 24q-7 0 -16 -6l-203 -145q-9 -6 -14 -6 q-10 0 -16 12l-29 49q-4 8 -4 13z" />
<glyph unicode="+" d="M96 461v37q0 20 21 20h356q21 0 21 21v352q0 20 20 20h33q20 0 20 -20v-352q0 -21 21 -21h352q21 0 21 -20v-37q0 -21 -21 -21h-352q-21 0 -21 -20v-352q0 -21 -20 -21h-33q-20 0 -20 21v352q0 20 -21 20h-356q-21 0 -21 21z" />
<glyph unicode="," horiz-adv-x="438" d="M102 -252q0 7 9 16q84 78 84 234q0 20 -21 20h-31q-20 0 -20 21v100q0 21 20 21h142q20 0 20 -21v-104q0 -142 -63 -230q-18 -27 -50.5 -58.5t-48.5 -31.5q-9 0 -18 9l-14 12q-9 9 -9 12z" />
<glyph unicode="-" horiz-adv-x="544" d="M121 414v65q0 21 20 21h262q21 0 21 -21v-65q0 -21 -21 -21h-262q-20 0 -20 21z" />
<glyph unicode="." horiz-adv-x="387" d="M102 51q0 38 27.5 65t65.5 27t65 -27t27 -65t-27 -65t-65 -27t-65.5 27t-27.5 65z" />
<glyph unicode="/" horiz-adv-x="634" d="M-20 16q0 5 4 13l534 1249q6 12 19 12h69q21 0 21 -16q0 -8 -2 -12l-535 -1250q-6 -12 -18 -12h-70q-22 0 -22 16z" />
<glyph unicode="0" d="M147 307v678q0 146 96 236t251 90h65q160 0 255 -89.5t95 -236.5v-678q0 -144 -96.5 -235.5t-253.5 -91.5h-65q-158 0 -252.5 90t-94.5 237zM252 307q0 -101 69.5 -173.5t172.5 -72.5h65q104 0 175 71t71 175v678q0 103 -72.5 172.5t-173.5 69.5h-65q-104 0 -173 -69 t-69 -173v-678z" />
<glyph unicode="1" d="M240 20v41q0 21 20 21h221q21 0 21 20v961q0 17 -11.5 21.5t-23.5 -7.5l-162 -159q-17 -17 -29 0l-24 32q-13 16 0 29l301 301q6 6 14 6h19q20 0 20 -20v-1164q0 -20 21 -20h221q20 0 20 -21v-41q0 -20 -20 -20h-588q-20 0 -20 20z" />
<glyph unicode="2" d="M170 1159q0 4 3 8.5t8.5 10.5t6.5 8q54 62 119.5 93.5t159.5 31.5h86q163 0 256.5 -87t93.5 -239q0 -44 -9.5 -84t-24 -71t-40 -61t-48 -51t-57.5 -45.5t-59.5 -39.5t-63.5 -38q-23 -13 -34 -20q-65 -39 -110.5 -73.5t-85 -78.5t-59 -97.5t-19.5 -116.5v-107 q0 -20 20 -20h549q21 0 21 -21v-41q0 -20 -21 -20h-653q-21 0 -21 20v189q0 69 18.5 129.5t45 103t71 83t81.5 66t90 56.5q65 38 102 61t81.5 57.5t67 64t38.5 69.5t16 86q0 101 -65.5 171.5t-180.5 70.5h-86q-57 0 -112.5 -29.5t-92.5 -79.5q-5 -8 -14 -8q-3 0 -62 29 q-16 8 -16 20z" />
<glyph unicode="3" d="M147 135q0 13 15 21q58 26 63 26q8 0 13 -8q93 -113 208 -113h66q102 0 174 69.5t72 176.5v74q0 99 -73 170.5t-173 71.5h-127q-20 0 -20 20v41q0 21 20 21h127q104 0 175 72t71 177v31q0 103 -72.5 172.5t-173.5 69.5h-66q-119 0 -208 -113q-7 -10 -17 -10q-4 0 -9.5 3 t-21.5 13.5t-30 18.5q-13 7 -13 16q0 7 5 12q55 70 123.5 107t170.5 37h66q161 0 255.5 -92t94.5 -254v-35q0 -82 -54 -154.5t-130 -101.5q-10 -2 -10 -10q0 -6 10 -9q69 -21 126.5 -95t57.5 -173v-63q0 -158 -95.5 -251t-254.5 -93h-66q-125 0 -210 59q-23 15 -56 49.5 t-33 46.5z" />
<glyph unicode="4" d="M98 340v96l557 842q8 8 17 8h100q21 0 21 -20v-846q0 -21 20 -21h158q20 0 20 -20v-39q0 -21 -20 -21h-158q-20 0 -20 -20v-279q0 -20 -21 -20h-63q-21 0 -21 20v279q0 20 -20 20h-549q-21 0 -21 21zM199 408.5q5 -9.5 20 -9.5h449q20 0 20 21v678q0 19 -12 23t-23 -11 l-450 -678q-9 -14 -4 -23.5z" />
<glyph unicode="5" d="M188 133q0 13 13 19q59 30 65 30q10 0 15 -8q41 -54 96 -83.5t112 -29.5h66q102 0 174 69t72 177v74q0 101 -69.5 171.5t-176.5 70.5h-303q-21 0 -21 20v623q0 20 21 20h608q21 0 21 -20v-54q0 -20 -21 -20h-504q-20 0 -20 -21v-446q0 -20 20 -20h199q159 0 254.5 -91.5 t95.5 -248.5v-41q0 -153 -96.5 -248.5t-253.5 -95.5h-66q-136 0 -227 71q-20 14 -47 42.5t-27 39.5z" />
<glyph unicode="6" d="M170 307v678q0 146 94.5 236t249.5 90h61q146 0 236 -74q35 -28 63 -70q11 -17 -12 -28l-53 -27q-13 -7 -23 6q-88 109 -211 109h-61q-107 0 -173.5 -66.5t-66.5 -175.5v-348q0 -17 10.5 -19.5t22.5 9.5q95 92 232 92h61q137 0 231.5 -91.5t94.5 -232.5v-88 q0 -141 -97.5 -234t-253.5 -93h-61q-157 0 -250.5 90t-93.5 237zM274 307q0 -101 68.5 -173.5t171.5 -72.5h61q101 0 173.5 71.5t72.5 174.5v88q0 95 -66.5 168.5t-179.5 73.5h-61q-101 0 -170.5 -69.5t-69.5 -172.5v-88z" />
<glyph unicode="7" d="M190 1212v54q0 20 21 20h657q21 0 21 -20v-185q0 -70 -21.5 -132.5t-50 -105.5t-78 -88t-83.5 -69t-89 -59q-113 -72 -170 -146t-57 -174v-287q0 -20 -21 -20h-63q-20 0 -20 20v287q0 58 16 110t39.5 90.5t61.5 76t71 62.5t78 54q70 45 112.5 78t86 79.5t63.5 101.5 t20 122v90q0 21 -20 21h-553q-21 0 -21 20z" />
<glyph unicode="8" d="M147 920v45q0 157 96.5 251.5t250.5 94.5h65q161 0 255.5 -94.5t94.5 -251.5v-45q0 -84 -51.5 -154.5t-124.5 -99.5q-20 -10 0 -19q69 -25 122.5 -100t53.5 -170v-53q0 -154 -96 -249t-254 -95h-65q-158 0 -251 93t-93 251v53q0 95 58 167.5t132 96.5q6 2 8.5 5t0.5 6 t-9 5q-72 21 -132.5 95t-60.5 168zM252 307q0 -101 69.5 -173.5t172.5 -72.5h65q102 0 174 69.5t72 176.5v64q0 100 -71.5 170.5t-174.5 70.5h-65q-104 0 -173 -69t-69 -172v-64zM252 944q0 -105 69.5 -177.5t172.5 -72.5h65q104 0 175 72.5t71 177.5v41q0 103 -72.5 172.5 t-173.5 69.5h-65q-104 0 -173 -69t-69 -173v-41z" />
<glyph unicode="9" d="M131 817v166q0 142 97 235t253 93h62q157 0 250.5 -90.5t93.5 -237.5v-678q0 -146 -94.5 -235.5t-249.5 -89.5h-62q-149 0 -237 75q-30 23 -62 68q-11 17 13 29l53 26q13 6 22 -6q88 -109 211 -109h62q107 0 173 66.5t66 175.5v270q0 17 -10 20t-22 -9q-95 -92 -232 -92 h-61q-137 0 -231.5 91.5t-94.5 231.5zM236 817q0 -95 66 -168.5t179 -73.5h62q101 0 170 69.5t69 172.5v166q0 102 -68 174t-171 72h-62q-101 0 -173 -71.5t-72 -174.5v-166z" />
<glyph unicode=":" horiz-adv-x="387" d="M102 51q0 38 27.5 65t65.5 27t65 -27t27 -65t-27 -65t-65 -27t-65.5 27t-27.5 65zM102 645q0 38 27.5 65t65.5 27t65 -27t27 -65t-27 -65t-65 -27t-65.5 27t-27.5 65z" />
<glyph unicode=";" horiz-adv-x="413" d="M96 -252q0 10 6 16q84 78 84 234q0 20 -20 20h-31q-20 0 -20 21v100q0 21 20 21h141q21 0 21 -21v-104q0 -144 -70 -240q-16 -23 -47 -51.5t-45 -28.5q-9 0 -18 9l-15 12q-6 6 -6 12zM111 645q0 38 27 65t65 27t65 -27t27 -65t-27 -65t-65 -27t-65 27t-27 65z" />
<glyph unicode="&#x3c;" d="M145 436v96q0 12 11 19l645 371q8 4 12 4q6 0 16 -13l17 -22q4 -8 4 -12q0 -11 -12 -17l-619 -354q-14 -8 -14 -19q0 -12 14 -18l617 -360q10 -5 10 -15q0 -7 -6 -16l-17 -25q-5 -8 -16 -8q-6 0 -10 4l-641 367q-11 7 -11 18z" />
<glyph unicode="=" d="M96 266v33q0 20 21 20h823q21 0 21 -20v-33q0 -20 -21 -20h-823q-21 0 -21 20zM96 659v33q0 21 21 21h823q21 0 21 -21v-33q0 -20 -21 -20h-823q-21 0 -21 20z" />
<glyph unicode="&#x3e;" d="M215 94q0 11 12 17l615 360q14 7 14 18q0 8 -14 19l-615 354q-12 6 -12 17q0 8 4 12l14 22q7 13 17 13q4 0 12 -4l643 -375q10 -7 10 -19v-88q0 -11 -10 -18l-643 -371q-8 -4 -12 -4q-11 0 -17 12l-14 23q-4 4 -4 12z" />
<glyph unicode="?" d="M170 1155q0 8 4 12q57 72 124.5 108t170.5 36h86q158 0 252 -89.5t94 -236.5q0 -57 -14.5 -104t-35.5 -78.5t-55.5 -59.5t-62 -44t-67.5 -35q-105 -51 -145 -97t-40 -127v-24q0 -23 -20 -23h-66q-18 0 -18 21v51q0 97 58.5 160t170.5 114q47 21 79 41.5t60 49.5t42 67.5 t14 87.5q0 103 -72.5 172.5t-173.5 69.5h-86q-122 0 -209 -113q-7 -10 -16 -10q-3 0 -62 35q-12 6 -12 16zM371 51q0 38 27 65t65 27t65 -27t27 -65t-27 -65t-65 -27t-65 27t-27 65z" />
<glyph unicode="@" horiz-adv-x="1439" d="M176 348v594q0 155 101 251.5t268 96.5h368q167 0 268 -96.5t101 -251.5v-440q0 -77 -50 -125.5t-134 -48.5h-27q-99 0 -151 65q-15 18 -31 2q-30 -27 -79.5 -47t-82.5 -20q-115 0 -183.5 65.5t-68.5 171.5v170q0 106 69 171t183 65q66 0 131 -45q14 -9 23.5 -5t9.5 21v8 q0 21 20 21h50q20 0 20 -21v-438q0 -40 26 -66t66 -26h25q37 0 64.5 27.5t27.5 64.5v430q0 115 -76 185.5t-201 70.5h-368q-125 0 -201 -70.5t-76 -185.5v-594q0 -115 76 -185.5t201 -70.5h532q21 0 21 -20v-52q0 -20 -21 -20h-532q-167 0 -268 96.5t-101 251.5zM567 582 q0 -68 46.5 -115t113.5 -47q66 0 115 48t49 114v137q0 67 -48 113.5t-116 46.5q-65 0 -112.5 -47.5t-47.5 -112.5v-137z" />
<glyph unicode="A" horiz-adv-x="921" d="M35 18q0 5 2 9l377 1245q3 14 20 14h53q18 0 21 -14l379 -1245q0 -15 -4 -21t-17 -6h-67q-18 0 -21 14l-82 287q-6 18 -22 18h-426q-19 0 -21 -12l-84 -293q-3 -14 -20 -14h-66q-22 0 -22 18zM256 418q0 -8 6.5 -13.5t16.5 -5.5h358q9 0 14 4.5t5.5 9t0.5 13.5l-172 633 q-6 24 -11.5 52t-7.5 44l-3 16h-6q-7 -59 -21 -110l-178 -635q-2 -2 -2 -8z" />
<glyph unicode="B" horiz-adv-x="1056" d="M170 20v1246q0 20 20 20h390q157 0 253.5 -84.5t96.5 -232.5v-37q0 -87 -53 -160.5t-138 -107.5q-9 -3 -9.5 -10.5t9.5 -10.5q78 -26 134.5 -99t56.5 -167v-31q0 -158 -95.5 -252t-254.5 -94h-390q-20 0 -20 20zM274 102q0 -20 21 -20h285q104 0 174.5 71t70.5 175v43 q0 100 -70.5 170.5t-174.5 70.5h-285q-21 0 -21 -20v-490zM274 715q0 -21 21 -21h285q104 0 174.5 72.5t70.5 177.5v21q0 109 -67.5 175t-177.5 66h-285q-21 0 -21 -20v-471z" />
<glyph unicode="C" horiz-adv-x="946" d="M150 307v678q0 147 93.5 236.5t250.5 89.5h65q129 0 221 -66q82 -59 82 -88q0 -11 -14 -18l-53 -27q-8 -4 -13 -4q-7 0 -10 6q-92 113 -213 113h-65q-104 0 -172 -69t-68 -173v-678q0 -101 68.5 -173.5t171.5 -72.5h65q131 0 211 115q6 6 12 6q7 0 11 -2l53 -24 q14 -7 14 -21q0 -6 -2 -10q-93 -145 -299 -145h-65q-157 0 -250.5 90t-93.5 237z" />
<glyph unicode="D" horiz-adv-x="1077" d="M170 20v1246q0 20 20 20h390q159 0 254.5 -92.5t95.5 -249.5v-594q0 -159 -95.5 -254.5t-254.5 -95.5h-390q-20 0 -20 20zM274 102q0 -20 21 -20h285q104 0 174.5 71t70.5 175v637q0 100 -70.5 170.5t-174.5 70.5h-285q-21 0 -21 -20v-1084z" />
<glyph unicode="E" horiz-adv-x="946" d="M170 20v1246q0 20 20 20h654q20 0 20 -20v-39q0 -21 -20 -21h-549q-21 0 -21 -20v-471q0 -21 21 -21h450q21 0 21 -20v-41q0 -21 -21 -21h-450q-21 0 -21 -20v-490q0 -20 21 -20h549q20 0 20 -21v-41q0 -20 -20 -20h-654q-20 0 -20 20z" />
<glyph unicode="F" horiz-adv-x="884" d="M170 20v1246q0 20 20 20h654q20 0 20 -20v-39q0 -21 -20 -21h-549q-21 0 -21 -20v-471q0 -21 21 -21h450q21 0 21 -20v-41q0 -21 -21 -21h-450q-21 0 -21 -20v-572q0 -20 -20 -20h-64q-20 0 -20 20z" />
<glyph unicode="G" horiz-adv-x="1034" d="M150 307v678q0 144 94 235t250 91h106q126 0 213 -62q47 -35 82 -82q14 -16 -10 -28l-54 -27q-15 -7 -22 2q-84 113 -209 113h-106q-109 0 -174.5 -65t-65.5 -177v-678q0 -105 68 -175.5t172 -70.5h65q107 0 175.5 72t68.5 174v187q0 20 -21 20h-221q-20 0 -20 21v43 q0 20 20 20h326q20 0 20 -20v-271q0 -141 -96 -234t-252 -93h-65q-157 0 -250.5 90t-93.5 237z" />
<glyph unicode="H" horiz-adv-x="1128" d="M170 20v1246q0 20 20 20h64q20 0 20 -20v-551q0 -21 21 -21h541q20 0 20 21v551q0 20 21 20h63q21 0 21 -20v-1246q0 -20 -21 -20h-63q-21 0 -21 20v572q0 20 -20 20h-541q-21 0 -21 -20v-572q0 -20 -20 -20h-64q-20 0 -20 20z" />
<glyph unicode="I" horiz-adv-x="442" d="M170 20v1246q0 20 20 20h64q20 0 20 -20v-1246q0 -20 -20 -20h-64q-20 0 -20 20z" />
<glyph unicode="J" horiz-adv-x="823" d="M16 141q0 11 13 17l53 26q4 2 10 2q9 0 14 -8q93 -117 211 -117q114 0 179 67t65 179v959q0 20 21 20h63q21 0 21 -20v-938q0 -157 -94.5 -252.5t-254.5 -95.5q-128 0 -219 69q-24 16 -53 46t-29 46z" />
<glyph unicode="K" horiz-adv-x="1019" d="M170 20v1246q0 20 20 20h64q20 0 20 -20v-670q0 -10 5.5 -17.5t13.5 -7.5t18 13l529 694q8 8 16 8h64q22 0 22 -16q0 -8 -6 -17l-377 -465q-8 -12 -8 -22q0 -9 6 -18l442 -717q5 -8 5 -15q0 -16 -23 -16h-74q-11 0 -18 10l-391 641q-14 17 -21 17q-9 0 -20 -15l-183 -229 v-404q0 -20 -20 -20h-64q-20 0 -20 20z" />
<glyph unicode="L" horiz-adv-x="880" d="M170 20v1246q0 20 20 20h64q20 0 20 -20v-1164q0 -20 21 -20h549q20 0 20 -21v-41q0 -20 -20 -20h-654q-20 0 -20 20z" />
<glyph unicode="M" horiz-adv-x="1329" d="M170 20v1246q0 20 20 20h70q13 0 19 -12l356 -813q29 -72 33 -88h6q16 45 33 84l350 817q6 12 18 12h66q20 0 20 -20v-1246q0 -20 -20 -20h-64q-20 0 -20 20v586q0 220 22 490l-8 2q-20 -70 -57 -156l-322 -725q-6 -12 -18 -12h-19q-12 0 -18 12l-318 725q-32 73 -59 158 l-8 -2q22 -270 22 -486v-592q0 -20 -20 -20h-64q-20 0 -20 20z" />
<glyph unicode="N" horiz-adv-x="1128" d="M170 20v1246q0 20 20 20h62q11 0 18 -10l549 -995q11 -20 22.5 -47.5t16.5 -45.5l6 -18h6q-14 121 -14 283v813q0 20 21 20h63q21 0 21 -20v-1246q0 -20 -21 -20h-66q-11 0 -18 10l-545 985q-13 24 -23.5 50.5t-15.5 41.5l-4 15h-6q12 -92 12 -254v-828q0 -20 -20 -20 h-64q-20 0 -20 20z" />
<glyph unicode="O" d="M150 307v678q0 147 93.5 236.5t250.5 89.5h65q158 0 253 -89.5t95 -236.5v-678q0 -147 -95 -237t-253 -90h-65q-157 0 -250.5 90t-93.5 237zM254 307q0 -101 68.5 -173.5t171.5 -72.5h65q100 0 172 73t72 173v678q0 103 -71.5 172.5t-172.5 69.5h-65q-104 0 -172 -69 t-68 -173v-678z" />
<glyph unicode="P" horiz-adv-x="954" d="M170 20v1246q0 20 20 20h390q159 0 254.5 -93t95.5 -249q0 -141 -97.5 -236.5t-252.5 -95.5h-285q-21 0 -21 -20v-572q0 -20 -20 -20h-64q-20 0 -20 20zM274 715q0 -21 21 -21h285q104 0 174.5 72.5t70.5 177.5v21q0 100 -70.5 170.5t-174.5 70.5h-285q-21 0 -21 -20 v-471z" />
<glyph unicode="Q" d="M150 307v678q0 147 93.5 236.5t250.5 89.5h65q158 0 253 -89.5t95 -236.5v-678q0 -128 -84.5 -216t-238.5 -111q-17 -3 -17 -21v-137q0 -21 -20 -21h-41q-21 0 -21 21v137q0 18 -20 21q-155 23 -235 110t-80 217zM254 307q0 -89 50 -152.5t153 -91.5q6 -2 11 -2 q17 0 17 21v111q0 20 21 20h41q20 0 20 -20v-115q0 -13 5 -16q3 -1 7 -1q5 0 13 2q105 25 158 91t53 153v678q0 103 -71.5 172.5t-172.5 69.5h-65q-104 0 -172 -69t-68 -173v-678z" />
<glyph unicode="R" horiz-adv-x="1038" d="M170 20v1246q0 20 20 20h390q163 0 257.5 -88t94.5 -240v-34q0 -88 -58.5 -166.5t-148.5 -110.5q-16 -6 -10 -20l207 -600q10 -27 -19 -27h-74q-15 0 -18 14l-203 586q-3 12 -16 12h-297q-21 0 -21 -20v-572q0 -20 -20 -20h-64q-20 0 -20 20zM274 715q0 -21 21 -21h285 q104 0 174.5 72.5t70.5 177.5v21q0 106 -67 173.5t-178 67.5h-285q-21 0 -21 -20v-471z" />
<glyph unicode="S" horiz-adv-x="921" d="M84 133q0 13 12 19l54 28q4 2 10 2q9 0 14 -8q87 -113 211 -113h88q108 0 177 70.5t69 175.5q0 49 -17 90.5t-41 69.5t-64 54.5t-72 43t-79 38.5q-4 2 -6.5 3t-6.5 3t-7 3q-48 23 -74.5 35.5t-67 36t-63 42t-50 47t-41.5 58t-24 69.5t-10 85q0 146 95 236t249 90h33 q122 0 207 -56q30 -19 63 -49t33 -49q0 -11 -14 -18l-51 -27q-8 -4 -15 -4t-10 6q-39 54 -96 83.5t-117 29.5h-33q-106 0 -171.5 -66t-65.5 -176q0 -53 18.5 -93.5t64.5 -75t71 -48.5t90 -44l18 -9q149 -70 202 -105q123 -83 151 -211q9 -43 9 -92q0 -147 -96.5 -237 t-257.5 -90h-88q-121 0 -209 57q-29 18 -60.5 48.5t-31.5 47.5z" />
<glyph unicode="T" horiz-adv-x="761" d="M33 1227v39q0 20 20 20h658q20 0 20 -20v-39q0 -21 -20 -21h-256q-21 0 -21 -20v-1166q0 -20 -20 -20h-64q-20 0 -20 20v1166q0 20 -21 20h-256q-20 0 -20 21z" />
<glyph unicode="U" horiz-adv-x="1075" d="M160 307v959q0 20 20 20h64q20 0 20 -20v-959q0 -108 65 -177t175 -69h65q108 0 176 70t68 176v959q0 20 21 20h63q21 0 21 -20v-959q0 -141 -98 -234t-251 -93h-65q-156 0 -250 92.5t-94 234.5z" />
<glyph unicode="V" horiz-adv-x="921" d="M35 1268q0 18 22 18h72q18 0 21 -14l292 -1030q11 -39 23 -101h6q7 42 23 103l282 1028q3 14 21 14h69q21 0 21 -26l-381 -1246q-3 -14 -21 -14h-47q-17 0 -20 14q-383 1242 -383 1254z" />
<glyph unicode="W" horiz-adv-x="1394" d="M45 1270q0 16 23 16h69q18 0 21 -16l192 -957q19 -93 19 -112h6q0 4 28 110l261 965q3 14 20 14h27q17 0 20 -14l264 -969q7 -29 15 -57t11 -39.5t3 -15.5h6q0 16 19 114l190 961q3 16 21 16h69q21 0 21 -24l-275 -1246q-3 -16 -20 -16h-47q-18 0 -21 14l-266 916 q-21 69 -21 110h-6q0 -29 -24 -110l-267 -916q-3 -14 -20 -14h-45q-18 0 -21 16l-264 1219q-8 32 -8 35z" />
<glyph unicode="X" horiz-adv-x="929" d="M70 1270q0 16 22 16h78q10 0 18 -12l267 -535q6 -16 18 -16q9 0 19 16l251 535q6 12 19 12h72q20 0 20 -16q0 -9 -2 -13l-299 -598q-4 -8 -4 -12q0 -2 4 -10l305 -608q2 -4 2 -13q0 -16 -20 -16h-78q-13 0 -19 12l-258 539q-8 14 -18 14q-12 0 -18 -14l-269 -539 q-8 -12 -18 -12h-66q-22 0 -22 16q0 9 4 15l309 606q0 1 1 4t1 4q0 2 -1 5t-1 5l-313 600q-4 6 -4 15z" />
<glyph unicode="Y" horiz-adv-x="847" d="M18 1270q0 16 23 16h78q10 0 18 -12l273 -553q6 -16 18 -16q8 0 18 16l265 553q8 12 18 12h80q22 0 22 -16q0 -3 -4 -15l-352 -655v-580q0 -20 -20 -20h-64q-20 0 -20 20v580l-348 655q-5 7 -5 15z" />
<glyph unicode="Z" horiz-adv-x="843" d="M72 16q0 5 4 13l512 1149q2 4 2 12q0 16 -21 16h-465q-20 0 -20 21v39q0 20 20 20h617q20 0 20 -16q0 -9 -2 -13l-514 -1146q-4 -8 -4 -13q0 -16 23 -16h518q20 0 20 -21v-41q0 -20 -20 -20h-668q-22 0 -22 16z" />
<glyph unicode="[" horiz-adv-x="675" d="M221 -373v1858q0 20 21 20h260q20 0 20 -20v-39q0 -21 -20 -21h-156q-20 0 -20 -20v-1696q0 -20 20 -20h156q20 0 20 -21v-41q0 -20 -20 -20h-260q-21 0 -21 20z" />
<glyph unicode="\" horiz-adv-x="634" d="M-18 1270q0 16 22 16h70q12 0 18 -12q187 -439 388 -908q147 -342 147 -350q0 -16 -21 -16h-69q-13 0 -19 12l-532 1245q-4 8 -4 13z" />
<glyph unicode="]" horiz-adv-x="675" d="M154 -332q0 21 20 21h156q20 0 20 20v1696q0 20 -20 20h-156q-20 0 -20 21v39q0 20 20 20h260q21 0 21 -20v-1858q0 -20 -21 -20h-260q-20 0 -20 20v41z" />
<glyph unicode="^" d="M135 657l381 654h25l379 -654h-86l-304 537h-4l-305 -537h-86z" />
<glyph unicode="_" horiz-adv-x="419" d="M-39 -389q0 20 21 20h430q20 0 20 -20v-51q0 -21 -20 -21h-430q-21 0 -21 21v51z" />
<glyph unicode="`" horiz-adv-x="1024" d="M246 1249q0 8 7 13.5t17 5.5h109q13 0 18 -8l160 -224q4 -8 4 -12q0 -8 -14 -8h-8q-16 0 -37 16l-246 201q-10 7 -10 16z" />
<glyph unicode="a" horiz-adv-x="897" d="M92 227v27q0 101 71 166t175 65h297q20 0 20 21v80q0 102 -68.5 169.5t-174.5 67.5q-60 0 -115.5 -29t-93.5 -81q-10 -14 -25 -8l-57 28q-21 10 -8 29q41 56 86 86q89 59 213 59q158 0 253 -87.5t95 -233.5v-566q0 -20 -21 -20h-39q-20 0 -20 20v95q0 20 -14 23t-25 -11 q-45 -59 -102.5 -93t-116.5 -34h-84q-104 0 -175 64t-71 163zM195 227q0 -61 40 -103t103 -42h84q73 0 137.5 58.5t95.5 142.5v100q0 20 -20 20h-297q-60 0 -101.5 -41.5t-41.5 -101.5v-33z" />
<glyph unicode="b" horiz-adv-x="962" d="M150 20v1246q0 20 20 20h63q21 0 21 -20v-453q0 -19 13 -20.5t24 10.5q90 90 225 90q140 0 235 -91.5t95 -232.5v-241q0 -144 -96.5 -236t-253.5 -92q-140 0 -226 109q-7 9 -16.5 12t-17 -2.5t-7.5 -18.5v-80q0 -20 -20 -20h-39q-20 0 -20 20zM254 328q0 -100 71.5 -173 t170.5 -73q107 0 176 69.5t69 176.5v241q0 100 -71.5 171t-173.5 71t-172 -70t-70 -172v-241z" />
<glyph unicode="c" horiz-adv-x="860" d="M119 307v283q0 79 41.5 152t122.5 122t182 49q125 0 201 -45q26 -15 64 -52.5t38 -53.5q0 -12 -14 -19l-52 -24q-8 -4 -12 -4q-6 0 -12 6q-93 110 -213 110q-102 0 -172 -69.5t-70 -171.5v-283q0 -107 67 -176.5t175 -69.5q124 0 213 115q6 6 10 6q6 0 10 -2l54 -24 q14 -7 14 -21q0 -6 -2 -10q-50 -72 -118.5 -108.5t-180.5 -36.5q-157 0 -251.5 90t-94.5 237z" />
<glyph unicode="d" horiz-adv-x="962" d="M119 328v241q0 141 95 232.5t235 91.5q135 0 225 -90q10 -12 23.5 -10.5t13.5 20.5v453q0 20 20 20h64q20 0 20 -20v-1246q0 -20 -20 -20h-39q-21 0 -21 20v80q0 13 -7.5 18.5t-17 2.5t-16.5 -12q-86 -109 -225 -109q-157 0 -253.5 92t-96.5 236zM223 328 q0 -107 69.5 -176.5t176.5 -69.5q99 0 170.5 73t71.5 173v241q0 102 -70 172t-172 70t-174 -71t-72 -171v-241z" />
<glyph unicode="e" horiz-adv-x="931" d="M119 307v283q0 79 41.5 152t122.5 122t182 49q161 0 255.5 -97t94.5 -236v-121q0 -21 -20 -21h-551q-21 0 -21 -20v-111q0 -107 67 -176.5t175 -69.5h31q128 0 213 115q8 10 20 4l53 -24q25 -13 13 -31q-37 -53 -93 -90q-83 -55 -206 -55h-31q-157 0 -251.5 90t-94.5 237 zM223 551q0 -17 4.5 -24t16.5 -7h446q21 0 21 21v32q0 110 -69 184t-177 74q-102 0 -172 -69.5t-70 -171.5v-39z" />
<glyph unicode="f" horiz-adv-x="555" d="M88 733v41q0 21 21 21h55q20 0 20 20v150q0 155 97 250.5t249 95.5h39q25 0 25 -15q0 -8 -19 -57q-4 -12 -16 -12h-29q-104 0 -172.5 -69t-68.5 -173v-170q0 -20 20 -20h158q20 0 20 -21v-41q0 -20 -20 -20h-158q-20 0 -20 -21v-672q0 -20 -21 -20h-63q-21 0 -21 20v672 q0 21 -20 21h-55q-21 0 -21 20z" />
<glyph unicode="g" horiz-adv-x="921" d="M104 -231q0 59 36 109.5t102 76.5q9 3 11.5 12t-3.5 15q-51 60 -51 124q0 80 59 136q16 12 -4 28q-150 108 -150 279v20q0 142 97.5 233t244.5 91q139 0 232 -107q12 -14 25.5 -11.5t13.5 22.5v75q0 21 20 21h41q21 0 21 -21v-323q0 -142 -101.5 -235t-251.5 -93 q-19 0 -79 6q-32 -12 -52 -46.5t-20 -74.5q0 -43 24 -76.5t64 -43.5h262q117 0 184.5 -57t67.5 -160v-7q0 -106 -72.5 -164.5t-179.5 -58.5h-297q-106 0 -175 59t-69 164v7zM205 -231v-7q0 -65 38 -102t105 -37h297q68 0 108 37.5t40 101.5v7q0 59 -40 96t-108 37h-297 q-63 0 -103 -36.5t-40 -96.5zM211 549q0 -103 65.5 -174.5t169.5 -71.5q107 0 174.5 71.5t67.5 174.5v20q0 100 -71 171t-171 71q-101 0 -168 -69.5t-67 -172.5v-20z" />
<glyph unicode="h" horiz-adv-x="983" d="M150 20v1246q0 20 20 20h63q21 0 21 -20v-453q0 -19 13 -20.5t24 10.5q90 90 225 90q141 0 235.5 -91.5t94.5 -232.5v-549q0 -20 -21 -20h-63q-21 0 -21 20v549q0 99 -72.5 170.5t-172.5 71.5q-102 0 -172 -70t-70 -172v-549q0 -20 -21 -20h-63q-20 0 -20 20z" />
<glyph unicode="i" horiz-adv-x="401" d="M129 1237q0 31 20.5 52.5t51.5 21.5t52 -21.5t21 -52.5t-21.5 -53.5t-51.5 -22.5t-51 22.5t-21 53.5zM150 20v852q0 21 20 21h63q21 0 21 -21v-852q0 -20 -21 -20h-63q-20 0 -20 20z" />
<glyph unicode="j" horiz-adv-x="401" d="M-47 -416q0 18 16 21q84 23 132.5 86.5t48.5 148.5v1032q0 21 20 21h63q21 0 21 -21v-1007q0 -97 -40 -173t-114 -122q-87 -53 -131 -53q-16 0 -16 22v45zM129 1237q0 31 20.5 52.5t51.5 21.5t52 -21.5t21 -52.5t-21.5 -53.5t-51.5 -22.5t-51 22.5t-21 53.5z" />
<glyph unicode="k" horiz-adv-x="880" d="M150 20v1246q0 20 20 20h63q21 0 21 -20v-754q0 -10 5 -16.5t11 -6.5q10 0 19 9l346 381q14 14 29 14h57q22 0 22 -19q0 -8 -8 -16l-243 -244q-9 -9 -9 -14q0 -6 4 -10l349 -559q4 -12 4 -15q0 -16 -23 -16h-74q-11 0 -18 10l-299 492q-6 12 -16 12q-9 0 -17 -8 l-139 -141v-345q0 -20 -21 -20h-63q-20 0 -20 20z" />
<glyph unicode="l" horiz-adv-x="401" d="M150 20v1246q0 20 20 20h63q21 0 21 -20v-1246q0 -20 -21 -20h-63q-20 0 -20 20z" />
<glyph unicode="m" horiz-adv-x="1484" d="M150 20v852q0 21 20 21h39q20 0 20 -21v-81q0 -20 12.5 -23.5t24.5 10.5q95 115 230 115q148 0 243 -145q15 -25 33 0q107 145 254 145q139 0 230.5 -91t91.5 -233v-549q0 -20 -21 -20h-63q-21 0 -21 20v549q0 107 -63 174.5t-162 67.5q-79 0 -148 -72.5t-69 -169.5v-549 q0 -20 -21 -20h-63q-21 0 -21 20v549q0 102 -65 172t-160 70q-79 0 -148 -70.5t-69 -171.5v-549q0 -20 -21 -20h-63q-20 0 -20 20z" />
<glyph unicode="n" horiz-adv-x="983" d="M150 20v852q0 21 20 21h39q20 0 20 -21v-84q0 -13 7.5 -18t17 -2t16.5 12q44 55 104 84t122 29q157 0 253.5 -90.5t96.5 -233.5v-549q0 -20 -21 -20h-63q-21 0 -21 20v549q0 104 -68 173t-177 69q-102 0 -172 -70t-70 -172v-549q0 -20 -21 -20h-63q-20 0 -20 20z" />
<glyph unicode="o" horiz-adv-x="929" d="M119 307v283q0 149 95.5 236t246.5 87q153 0 252.5 -86t99.5 -237v-283q0 -147 -101.5 -237t-250.5 -90t-245.5 90t-96.5 237zM223 307q0 -107 65.5 -176.5t172.5 -69.5q104 0 176 71t72 175v283q0 106 -70.5 173.5t-177.5 67.5q-108 0 -173 -66t-65 -175v-283z" />
<glyph unicode="p" horiz-adv-x="962" d="M150 -440v1312q0 21 20 21h39q20 0 20 -21v-79q0 -13 7.5 -18.5t17 -2.5t16.5 12q86 109 226 109q157 0 253.5 -92t96.5 -236v-241q0 -141 -95 -232.5t-235 -91.5q-135 0 -225 90q-11 12 -24 10.5t-13 -20.5v-520q0 -21 -21 -21h-63q-20 0 -20 21zM254 324 q0 -102 70 -172t172 -70t173.5 71t71.5 171v241q0 107 -69 176.5t-176 69.5q-99 0 -170.5 -73t-71.5 -173v-241z" />
<glyph unicode="q" horiz-adv-x="962" d="M119 324v241q0 144 96.5 236t253.5 92q139 0 225 -109q7 -9 16.5 -12t17 2.5t7.5 18.5v79q0 21 21 21h39q20 0 20 -21v-1312q0 -21 -20 -21h-64q-20 0 -20 21v520q0 19 -13.5 20.5t-23.5 -10.5q-90 -90 -225 -90q-140 0 -235 91.5t-95 232.5zM223 324q0 -100 72 -171 t174 -71t172 70t70 172v241q0 100 -71.5 173t-170.5 73q-107 0 -176.5 -69.5t-69.5 -176.5v-241z" />
<glyph unicode="r" horiz-adv-x="544" d="M150 20v852q0 21 20 21h39q20 0 20 -21v-94q0 -22 19 -22q13 0 22 12q99 125 226 125h20q23 0 23 -21v-63q0 -21 -21 -21h-22q-101 0 -171.5 -72.5t-70.5 -166.5v-529q0 -20 -21 -20h-63q-20 0 -20 20z" />
<glyph unicode="s" horiz-adv-x="899" d="M109 653q0 125 86 192.5t219 67.5h65q116 0 201 -53q30 -18 62 -47t32 -45q0 -11 -14 -18l-31 -15q-10 -10 -22 -10q-10 0 -17 10q-40 50 -96 78.5t-115 28.5h-65q-103 0 -153 -48.5t-50 -123.5q0 -18 4.5 -34t10 -28t19 -24t21.5 -19t27.5 -15.5t27.5 -12.5t32 -10 l30 -7.5t31.5 -7t27.5 -6.5q157 -34 213 -57q123 -52 139 -159q3 -18 3 -38q0 -121 -84 -196.5t-234 -75.5h-65q-133 0 -228 71q-25 17 -50 43t-25 39t16 19l51 22q4 2 10 2q10 0 17 -10q36 -53 91 -84t118 -31h65q101 0 158 55t57 130q0 50 -32.5 83.5t-84 49.5t-114 28.5 t-124.5 28t-113.5 39.5t-84 71.5t-32.5 116.5z" />
<glyph unicode="t" horiz-adv-x="546" d="M18 831v15l224 239q7 7 14 7h10q21 0 21 -21v-158q0 -20 20 -20h154q20 0 20 -21v-41q0 -20 -20 -20h-154q-20 0 -20 -20v-484q0 -86 47 -150t131 -87q16 -3 16 -21v-47q0 -20 -18 -20q-136 26 -208.5 111.5t-72.5 213.5v484q0 20 -20 20h-123q-21 0 -21 20z" />
<glyph unicode="u" horiz-adv-x="987" d="M139 328v544q0 21 21 21h63q21 0 21 -21v-544q0 -106 70 -176t171 -70q105 0 177.5 71t72.5 175v544q0 21 21 21h63q21 0 21 -21v-852q0 -20 -21 -20h-43q-20 0 -20 20v84q0 13 -7 19t-16 3.5t-16 -11.5q-92 -115 -232 -115q-156 0 -251 92t-95 236z" />
<glyph unicode="v" horiz-adv-x="835" d="M23 877q0 16 22 16h74q12 0 18 -12l258 -664q21 -64 23 -80h8q3 31 23 80l256 664q6 12 18 12h70q20 0 20 -16q0 -9 -2 -13l-346 -852q-6 -12 -19 -12h-57q-12 0 -18 12l-344 852q-4 8 -4 13z" />
<glyph unicode="w" horiz-adv-x="1222" d="M35 877q0 16 22 16h72q18 0 21 -14l167 -650q3 -14 10.5 -38.5t10.5 -40.5h8q6 31 21 79l188 650q3 14 20 14h84q18 0 21 -14l182 -650q13 -52 19 -79h8q3 16 10 39.5t10 37.5l166 652q3 14 21 14h71q21 0 21 -19v-8l-260 -852q-3 -14 -21 -14h-47q-17 0 -20 14l-201 680 q-15 49 -21 80h-8q-9 -42 -20 -80l-205 -680q-3 -14 -20 -14h-46q-17 0 -20 14l-262 852q-2 4 -2 11z" />
<glyph unicode="x" horiz-adv-x="843" d="M72 16q0 6 6 15l262 403q10 10 10 19q0 10 -12 22l-256 387q-6 6 -6 15q0 16 22 16h76q9 0 16 -10l226 -357q5 -10 12 -10q9 0 14 10l217 357q7 10 17 10h72q20 0 20 -16q0 -7 -4 -15l-258 -393q-6 -12 -6 -14q0 -9 6 -15l262 -409q4 -12 4 -15q0 -16 -20 -16h-78 q-12 0 -19 10l-223 367q-5 8 -12 8q-5 0 -10 -8l-228 -367q-7 -10 -14 -10h-74q-22 0 -22 16z" />
<glyph unicode="y" horiz-adv-x="987" d="M139 324v548q0 21 21 21h63q21 0 21 -21v-548q0 -100 71.5 -171t173.5 -71t174 70t72 172v548q0 21 21 21h63q21 0 21 -21v-1003q0 -157 -92.5 -253.5t-262.5 -96.5q-138 0 -225 67q-44 35 -70 80q-11 17 13 29l53 26q14 6 23 -6q83 -114 206 -114q109 0 179.5 70 t70.5 175v234q0 21 -12 24t-29 -14q-50 -50 -103.5 -70t-121.5 -20q-140 0 -235 91.5t-95 232.5z" />
<glyph unicode="z" horiz-adv-x="800" d="M47 829v41q0 21 21 21h591q15 0 20.5 -8.5t-1.5 -22.5l-442 -747q-7 -13 -2 -22t20 -9h465q20 0 20 -21v-41q0 -20 -20 -20h-629q-15 0 -20 9t2 22l440 747q7 14 2 22.5t-20 8.5h-426q-21 0 -21 20z" />
<glyph unicode="{" horiz-adv-x="759" d="M111 524v64q0 17 16 20q84 23 131 86.5t47 149.5v319q0 130 74 219t205 121q8 0 11.5 -0.5t7 -5.5t3.5 -14v-47q0 -18 -16 -21q-84 -20 -131 -82.5t-47 -148.5v-365q0 -62 -44 -137.5t-114 -108.5q-8 -3 -8 -8q0 -7 8 -10q68 -35 113 -123t45 -153v-347q0 -86 47 -149 t131 -86q16 -3 16 -21v-47q0 -22 -14 -22q-1 0 -43 12q-113 37 -178.5 127t-65.5 211v315q0 85 -47 147t-131 85q-16 3 -16 20z" />
<glyph unicode="|" horiz-adv-x="475" d="M201 -512v2048h73v-2048h-73z" />
<glyph unicode="}" horiz-adv-x="759" d="M154 -324q0 18 16 21q84 23 131 86t47 149v347q0 65 45 153t113 123q8 3 8 10q0 4 -8 8q-70 33 -114 108.5t-44 137.5v365q0 86 -47 148.5t-131 82.5q-16 3 -16 21v47q0 13 4.5 16.5t17.5 3.5q128 -28 203.5 -119t75.5 -221v-319q0 -86 47 -149.5t131 -86.5q16 -3 16 -20 v-64q0 -17 -16 -20q-84 -23 -131 -85t-47 -147v-315q0 -170 -121 -272q-30 -25 -82.5 -51t-83.5 -27q-14 0 -14 22v47z" />
<glyph unicode="~" d="M127 430q93 148 223 148q97 0 191 -64q96 -61 164 -61q45 0 91.5 31.5t80.5 90.5l49 -47q-91 -147 -219 -147q-98 0 -197 63q-98 62 -164 62q-43 0 -89.5 -32t-80.5 -91z" />
<glyph unicode="&#xa0;" />
<glyph unicode="&#xa1;" horiz-adv-x="600" d="M207 842q0 38 27 65t65 27t65 -27t27 -65t-27 -65t-65 -27t-65 27t-27 65zM248 137l33 361q2 12 5 16t13 4q17 0 20 -20l35 -357v-514q0 -20 -20 -20h-66q-20 0 -20 20v510z" />
<glyph unicode="&#xa2;" d="M193 344v283q0 106 76 199.5t198 117.5q25 6 25 25v137q0 20 20 20h51q21 0 21 -20v-135q0 -22 24 -25q87 -12 142 -49q23 -14 57.5 -50t34.5 -48q0 -11 -15 -19l-63 -28q-6 0 -12 6q-29 37 -78.5 69.5t-75.5 32.5q-14 0 -14 -20v-713q0 -21 16 -21q28 0 75 34.5t77 72.5 q6 6 10 6q7 0 63 -26q15 -7 15 -21q0 -6 -2 -10q-84 -124 -230 -142q-24 -3 -24 -28v-135q0 -21 -21 -21h-51q-20 0 -20 21v135q0 28 -27 31q-125 20 -198.5 107t-73.5 214zM297 344q0 -78 37.5 -137.5t103.5 -87.5q33 -13 39 -13q15 0 15 19v715q0 20 -15 20q-8 0 -28 -8 q-68 -27 -110 -87.5t-42 -137.5v-283z" />
<glyph unicode="&#xa3;" d="M29 20v41q0 21 20 21h41q94 0 164 72.5t70 173.5v264q0 20 -21 20h-59q-21 0 -21 21v41q0 20 21 20h59q21 0 21 21v250q0 148 97.5 247t248.5 99q129 0 211 -56q20 -13 54 -50t34 -48t-15 -18q-58 -31 -63 -31q-7 0 -10 6q-88 113 -211 113q-103 0 -172.5 -71t-69.5 -171 v-270q0 -21 21 -21h155q21 0 21 -20v-41q0 -21 -21 -21h-155q-21 0 -21 -20v-281q0 -54 -22 -108.5t-66 -93.5q-6 -6 -6 -15q0 -12 18 -12h549q21 0 21 -21v-41q0 -20 -21 -20h-852q-20 0 -20 20z" />
<glyph unicode="&#xa4;" horiz-adv-x="1265" d="M193 354q23 21 68.5 65t68.5 66q-82 110 -82 240q0 145 82 240l-69 66t-68 67q11 10 31.5 31.5t31.5 31.5l135 -135q112 84 242 84q60 0 125 -21.5t114 -62.5q23 22 69.5 67t68.5 68q10 -10 30.5 -31.5t30.5 -31.5q-22 -23 -68 -67l-69 -66q84 -103 84 -240 q0 -128 -84 -240q22 -21 68 -65.5t69 -65.5q-10 -10 -30.5 -31.5t-30.5 -31.5q-22 22 -67.5 67t-68.5 68q-107 -86 -241 -86q-140 0 -242 86l-135 -135q-11 10 -31.5 31.5t-31.5 31.5zM336 727q0 -121 87.5 -210t209.5 -89q121 0 209 88.5t88 210.5q0 127 -90.5 211 t-204.5 84q-128 0 -213.5 -87t-85.5 -208z" />
<glyph unicode="&#xa5;" d="M104 219v53q0 21 21 21h332q20 0 20 20v199q0 20 -20 20h-332q-21 0 -21 21v55q0 21 21 21h297q15 0 20 8.5t-2 21.5l-315 596q-7 13 -2 22t20 9h78q11 0 19 -12l272 -553q8 -15 19 -15t18 15l264 553q8 12 18 12h78q15 0 20.5 -9t-1.5 -22l-316 -596q-7 -13 -1.5 -21.5 t20.5 -8.5h301q20 0 20 -21v-55q0 -21 -20 -21h-330q-20 0 -20 -20v-199q0 -20 20 -20h330q20 0 20 -21v-53q0 -20 -20 -20h-330q-20 0 -20 -21v-158q0 -20 -21 -20h-63q-21 0 -21 20v158q0 21 -20 21h-332q-21 0 -21 20z" />
<glyph unicode="&#xa6;" horiz-adv-x="475" d="M201 369h73v-762h-73v762zM201 743v762h73v-762h-73z" />
<glyph unicode="&#xa7;" d="M172 -334q0 12 14 19q56 26 64 26q7 0 12 -8q43 -54 97.5 -84.5t111.5 -30.5h94q106 0 176 71t70 175q0 64 -27 116.5t-71 87t-100.5 67.5t-115 59t-115 60.5t-100.5 72t-71 94t-27 125.5q0 115 80 219q8 12 8 19q0 4 -8 16q-80 94 -80 215q0 147 93.5 236.5t250.5 89.5 h37q128 0 215 -62q24 -17 56 -48.5t32 -43.5q0 -11 -14 -18q-13 -6 -24 -12t-17 -9t-10.5 -5.5t-7 -3.5t-4.5 -1q-7 0 -13 6q-101 113 -213 113h-37q-109 0 -175 -67t-66 -175q0 -55 21.5 -99.5t58 -76t83.5 -58.5t99 -51.5t104 -49.5t99 -57t83.5 -70.5t58 -93.5t21.5 -122 q0 -109 -75 -211q-6 -9 -6 -18q0 -13 8 -21q73 -92 73 -223q0 -144 -96.5 -236t-253.5 -92h-94q-126 0 -221 72q-20 15 -49 46.5t-29 41.5zM287 516q0 -47 20.5 -86t53 -66.5t80.5 -55t93 -48t102 -50t97 -56.5q11 -7 17 -7q18 0 39.5 64t21.5 96q0 60 -26 107t-75.5 82.5 t-98.5 61t-120 59.5t-114 61q-12 6 -19 6q-14 0 -36 -43q-35 -72 -35 -125z" />
<glyph unicode="&#xa8;" horiz-adv-x="1024" d="M260 1120q0 34 24 57t58 23t57 -23t23 -57t-23 -58t-57 -24t-58 24t-24 58zM604 1120q0 34 24 57t58 23t57 -23t23 -57t-23 -58t-57 -24t-58 24t-24 58z" />
<glyph unicode="&#xa9;" horiz-adv-x="1443" d="M162 184v594q0 156 98 250t264 94h369q169 0 266.5 -94.5t97.5 -249.5v-594q0 -153 -99 -247.5t-265 -94.5h-369q-166 0 -264 94t-98 248zM244 184q0 -117 76.5 -188.5t203.5 -71.5h369q127 0 205 71.5t78 188.5v594q0 117 -78 189.5t-205 72.5h-369q-129 0 -204.5 -72.5 t-75.5 -189.5v-594zM453 393v203q0 107 69 172.5t185 65.5q94 0 159 -48q39 -31 62 -67q9 -16 -4 -21l-60 -30q-14 -7 -20 6q-49 78 -137 78q-71 0 -113.5 -43t-42.5 -113v-203q0 -72 44 -113.5t112 -41.5q46 0 78.5 18.5t58.5 60.5q7 14 20 7l62 -33q15 -9 6 -21 q-25 -41 -66 -71q-61 -45 -159 -45q-116 0 -185 65.5t-69 173.5z" />
<glyph unicode="&#xaa;" horiz-adv-x="661" d="M51 827v7q0 76 52.5 121.5t132.5 45.5h194q14 0 14 15v59q0 68 -45 112t-114 44q-92 0 -140 -68q-13 -20 -30 -12l-39 20q-10 5 -13.5 15.5t3.5 21.5q29 41 61 62q59 41 158 41q116 0 186 -64.5t70 -171.5v-395q0 -25 -25 -25h-29q-24 0 -24 25v92q0 6 -4.5 7t-7.5 -5 q-25 -52 -68 -84.5t-90 -32.5h-57q-79 0 -132 46.5t-53 123.5zM141 827q0 -41 27 -67.5t68 -26.5h57q48 0 87.5 37t63.5 94v62q0 12 -12 12h-196q-38 0 -66.5 -26.5t-28.5 -63.5v-21z" />
<glyph unicode="&#xab;" horiz-adv-x="1148" d="M123 514v107q0 8 8 16l375 266q9 6 16 6q17 0 17 -22v-62q0 -7 -9 -16l-313 -225q-10 -8 -10 -17q0 -11 10 -16l313 -227q9 -9 9 -17v-61q0 -23 -17 -23q-7 0 -16 6l-375 269q-8 8 -8 16zM592 514v107q0 8 8 16l381 266q9 6 16 6q17 0 17 -22v-62q0 -8 -8 -16l-314 -225 q-10 -8 -10 -17q0 -11 10 -16l314 -227q8 -8 8 -17v-65q0 -23 -17 -23q-7 0 -16 6l-381 273q-8 8 -8 16z" />
<glyph unicode="&#xac;" d="M96 659v33q0 21 21 21h823q21 0 21 -21v-426q0 -20 -21 -20h-39q-20 0 -20 20v352q0 21 -21 21h-743q-21 0 -21 20z" />
<glyph unicode="&#xad;" horiz-adv-x="544" d="M121 414v65q0 21 20 21h262q21 0 21 -21v-65q0 -21 -21 -21h-262q-20 0 -20 21z" />
<glyph unicode="&#xae;" horiz-adv-x="870" d="M55 901v41q0 154 98.5 249t264.5 95h8q166 0 265.5 -95t99.5 -249v-41q0 -153 -99.5 -247.5t-265.5 -94.5h-8q-166 0 -264.5 94t-98.5 248zM106 901q0 -131 85.5 -211t226.5 -80h8q141 0 227 80t86 211v41q0 131 -86 212t-227 81h-8q-141 0 -226.5 -81t-85.5 -212v-41z M301 758v344q0 16 14 16h129q57 0 91 -34t34 -91v-8q0 -22 -16 -47t-37 -41q-15 -12 -6 -31l51 -102q5 -9 1 -15t-15 -6h-33q-11 0 -14 9l-47 108q-7 17 -23 17h-51q-25 0 -25 -27v-92q0 -15 -16 -15h-23q-9 0 -11.5 3t-2.5 12zM354 948q0 -24 25 -24h65q29 0 49.5 20 t20.5 49v6q0 29 -20.5 50.5t-49.5 21.5h-65q-25 0 -25 -27v-96z" />
<glyph unicode="&#xaf;" horiz-adv-x="1024" d="M305 1081v41q0 21 21 21h372q21 0 21 -21v-41q0 -20 -21 -20h-372q-21 0 -21 20z" />
<glyph unicode="&#xb0;" horiz-adv-x="528" d="M80 911v205q0 77 50 125.5t134 48.5t134.5 -48.5t50.5 -125.5v-205q0 -77 -50.5 -125.5t-134.5 -48.5t-134 48.5t-50 125.5zM174 911q0 -42 24 -66t66 -24q44 0 66 25t22 65v205q0 43 -23.5 66.5t-64.5 23.5t-65.5 -24.5t-24.5 -65.5v-205z" />
<glyph unicode="&#xb1;" d="M96 20v37q0 21 21 21h823q21 0 21 -21v-37q0 -20 -21 -20h-823q-21 0 -21 20zM96 569v37q0 21 21 21h356q21 0 21 20v352q0 21 20 21h33q20 0 20 -21v-352q0 -20 21 -20h352q21 0 21 -21v-37q0 -20 -21 -20h-352q-21 0 -21 -21v-352q0 -20 -20 -20h-33q-20 0 -20 20v352 q0 21 -21 21h-356q-21 0 -21 20z" />
<glyph unicode="&#xb2;" horiz-adv-x="620" d="M49 1317q0 6 24 34.5t40 39.5q55 41 145 41h55q107 0 167.5 -55.5t60.5 -147.5q0 -33 -10.5 -60t-22.5 -43.5t-39 -33.5t-42.5 -24t-52 -21t-48.5 -19q-8 -3 -27 -11t-26.5 -11t-23.5 -10t-22.5 -11t-18.5 -11.5t-17 -13t-12.5 -13.5t-10.5 -16t-5.5 -18.5t-2.5 -21.5 v-14q0 -11 14 -11h348q13 0 13 -10v-55q0 -10 -13 -10h-440q-12 0 -12 10v76q0 47 16 83t50 61.5t61.5 39.5t74.5 33q16 6 44.5 16.5t40.5 15.5t31.5 14t27.5 16t18 18.5t13.5 24.5t3.5 30q0 54 -35.5 89.5t-102.5 35.5h-55q-35 0 -69.5 -20t-57.5 -54q-6 -6 -8 -6 q-5 0 -37 16l-27 13q-10 7 -10 14z" />
<glyph unicode="&#xb3;" horiz-adv-x="620" d="M53 872q0 8 23 21l35 18q8 4 12 4t14 -10q51 -45 123 -45h43q60 0 101.5 26t41.5 66v33q0 37 -42.5 63.5t-100.5 26.5h-82q-9 0 -13.5 1t-7.5 5t-3 13v39q0 14 5 17t19 3h82q61 0 102 27.5t41 66.5v15q0 38 -42 64t-101 26h-43q-75 0 -123 -45q-11 -11 -16 -11t-25 13 l-18 14q-17 14 -17 18t13 17q74 74 186 74h43q106 0 170 -48t64 -131v-16q0 -36 -24 -68t-62 -53q36 -19 61 -52.5t25 -74.5v-31q0 -81 -64 -129.5t-170 -48.5h-43q-79 0 -139 31q-24 12 -55 43q-13 13 -13 18z" />
<glyph unicode="&#xb4;" horiz-adv-x="1024" d="M463 1024q0 4 4 12l160 224q5 8 18 8h109q10 0 17 -5.5t7 -13.5q0 -9 -10 -16l-246 -201q-21 -16 -37 -16h-8q-14 0 -14 8z" />
<glyph unicode="&#xb5;" horiz-adv-x="997" d="M143 -307v1179q0 21 21 21h63q21 0 21 -21v-544q0 -106 70 -176t171 -70q105 0 177.5 71t72.5 175v544q0 21 21 21h63q21 0 21 -21v-852q0 -20 -21 -20h-43q-20 0 -20 20v84q0 13 -7 19t-16 3.5t-16 -11.5q-92 -115 -232 -115q-129 0 -217 63q-10 7 -17 4t-7 -14v-360 q0 -21 -21 -21h-63q-21 0 -21 21z" />
<glyph unicode="&#xb6;" horiz-adv-x="1275" d="M152 526v418q0 157 94 249.5t252 92.5h589q21 0 21 -20v-1706q0 -21 -21 -21h-59q-20 0 -20 21v1626q0 20 -21 20h-252q-20 0 -20 -20v-1626q0 -21 -21 -21h-63q-21 0 -21 21v618q0 21 -20 21h-92q-156 0 -251 92t-95 235z" />
<glyph unicode="&#xb7;" d="M434 477q0 38 27 65t65 27q39 0 67 -27t28 -65t-27.5 -65t-65.5 -27t-66 27t-28 65z" />
<glyph unicode="&#xb8;" horiz-adv-x="1024" d="M369 -467q0 27 26 27h66q45 0 74.5 30.5t29.5 75.5v19q0 49 -98 94q-32 14 -16 47l98 211q9 18 29 18h34q15 0 20 -9t-1 -21l-86 -179q-8 -16 4 -22q106 -56 106 -139v-19q0 -80 -56 -128t-138 -48h-66q-26 0 -26 27v16z" />
<glyph unicode="&#xb9;" horiz-adv-x="620" d="M121 803v51q0 12 14 12h139q15 0 15 15v364q0 15 -13 15q-5 0 -10 -5l-88 -88q-4 -4 -10 -4q-4 0 -12 8l-31 33q-4 4 -4 10q0 5 4 9l201 200q9 9 18 9h21q12 0 12 -15v-536q0 -15 14 -15h139q13 0 13 -12v-51q0 -12 -13 -12h-395q-14 0 -14 12z" />
<glyph unicode="&#xba;" horiz-adv-x="667" d="M82 879v196q0 107 67.5 171.5t182.5 64.5q116 0 187 -64.5t71 -171.5v-196q0 -106 -71.5 -173t-186.5 -67t-182.5 66t-67.5 174zM174 879q0 -72 46 -117t112 -45q67 0 114.5 45.5t47.5 116.5v196q0 73 -46.5 115.5t-115.5 42.5t-113.5 -42t-44.5 -116v-196z" />
<glyph unicode="&#xbb;" horiz-adv-x="1148" d="M145 246v61q0 8 9 17l311 227q10 7 10 16q0 7 -10 17l-311 225q-9 9 -9 16v62q0 22 17 22q7 0 16 -6l381 -266q8 -8 8 -16v-107q0 -8 -8 -16l-381 -269q-9 -6 -16 -6q-17 0 -17 23zM621 246v61q0 9 8 17l311 227q10 7 10 16q0 7 -10 17l-311 225q-8 8 -8 16v62 q0 22 16 22q7 0 16 -6l375 -266q8 -8 8 -16v-107q0 -8 -8 -16l-375 -269q-9 -6 -16 -6q-16 0 -16 23z" />
<glyph unicode="&#xbc;" horiz-adv-x="1529" d="M121 657v52q0 12 14 12h139q15 0 15 14v365q0 6 -4 10t-9 4q-6 0 -10 -4l-88 -88q-4 -4 -10 -4t-8 4l-35 37q-4 8 -4 10q0 4 4 8l205 205q6 4 8 4h27q12 0 12 -14v-537q0 -14 14 -14h139q13 0 13 -12v-52q0 -12 -13 -12h-395q-14 0 -14 12zM510 16q0 5 4 13l533 1245 q6 12 18 12h49q21 0 21 -16q0 -9 -2 -13l-533 -1245q-6 -12 -18 -12h-50q-22 0 -22 16zM944 160v71l318 390q8 8 18 8h74q14 0 14 -13v-376q0 -11 3 -14t15 -3h84q25 0 25 -14v-51q0 -13 -25 -13h-86q-10 0 -13 -3.5t-3 -14.5v-109q0 -12 -4 -15t-16 -3h-45q-25 0 -25 16 v113q0 12 -2.5 14t-13.5 2h-304q-14 0 -14 15zM1044 229q0 -6 15 -6h203q8 0 11.5 2t4 4.5t0.5 8.5v254q0 14 -6 14t-25 -25l-190 -233q-13 -17 -13 -19z" />
<glyph unicode="&#xbd;" horiz-adv-x="1529" d="M121 657v52q0 12 14 12h139q15 0 15 14v365q0 6 -4 10t-9 4q-6 0 -10 -4l-80 -80q-12 -12 -18 -12q-5 0 -28 25q-9 10 -15 16q-4 4 -4 10q0 7 16 23l182 180q14 14 19 14h27q12 0 12 -14v-537q0 -14 14 -14h139q13 0 13 -12v-52q0 -12 -13 -12h-395q-14 0 -14 12zM465 16 q0 5 4 13l532 1245q6 12 19 12h49q21 0 21 -16q0 -7 -3 -13l-532 -1245q-6 -12 -18 -12h-50q-22 0 -22 16zM958 526q0 2 17 27q38 46 79.5 67t112.5 21h56q107 0 167 -55.5t60 -147.5q0 -47 -21 -83t-54.5 -57.5t-74 -38.5t-81.5 -31t-74.5 -29.5t-54.5 -40.5t-21 -58v-14 q0 -10 14 -10h349q12 0 12 -10v-56q0 -10 -12 -10h-441q-12 0 -12 10v76q0 38 12.5 70t29.5 52.5t48 40t53 29.5t60 25q15 6 44 16.5t40.5 15.5t31.5 14t27.5 16t17.5 18.5t13.5 24.5t3.5 30q0 54 -35 89.5t-102 35.5h-56q-35 0 -69.5 -20t-57.5 -54q-3 -6 -8 -6q-9 0 -18 9 l-45 20q-11 6 -11 14z" />
<glyph unicode="&#xbe;" horiz-adv-x="1529" d="M53 727q0 8 23 21l35 18q8 4 12 4t14 -10q51 -45 123 -45h43q60 0 101.5 26t41.5 66v33q0 37 -42.5 63.5t-100.5 26.5h-82q-10 0 -14 0.5t-7 4.5t-3 13v39q0 14 5 17.5t19 3.5h82q61 0 102 27.5t41 66.5v14q0 38 -42 64t-101 26h-43q-75 0 -123 -45q-10 -10 -16 -10 q-7 0 -25 12l-18 15q-17 14 -17 18q0 3 13 16q74 74 186 74h43q107 0 170.5 -47.5t63.5 -130.5v-16q0 -36 -24 -68t-62 -53q36 -19 61 -52.5t25 -74.5v-31q0 -81 -64 -129.5t-170 -48.5h-43q-79 0 -139 31q-24 12 -55 43q-13 13 -13 18zM482.5 8q-5.5 8 0.5 21l533 1245 q6 12 18 12h49q14 0 19.5 -8t-0.5 -21l-533 -1245q-6 -12 -18 -12h-49q-14 0 -19.5 8zM944 160v71l318 390q8 8 18 8h74q14 0 14 -13v-376q0 -11 3 -14t15 -3h84q25 0 25 -14v-51q0 -13 -25 -13h-86q-10 0 -13 -3.5t-3 -14.5v-109q0 -12 -4 -15t-16 -3h-45q-25 0 -25 16v113 q0 12 -2.5 14t-13.5 2h-304q-14 0 -14 15zM1044 229q0 -6 15 -6h203q8 0 11.5 2t4 4.5t0.5 8.5v254q0 14 -6 14t-25 -25l-190 -233q-13 -17 -13 -19z" />
<glyph unicode="&#xbf;" d="M160 -92q0 57 14.5 104t35.5 78.5t55.5 59.5t62 44t67.5 35q105 51 145 97t40 127v24q0 23 20 23h66q18 0 18 -21v-51q0 -97 -58.5 -160t-170.5 -114q-47 -21 -79 -41.5t-60 -49.5t-42 -67.5t-14 -87.5q0 -103 72.5 -172.5t173.5 -69.5h86q122 0 209 113q5 8 16 8 q8 0 62 -33q12 -6 12 -18q0 -2 -4 -10q-55 -71 -124 -107.5t-171 -36.5h-86q-158 0 -252 89.5t-94 236.5zM506 842q0 38 27 65t65 27t65 -27t27 -65t-27 -65t-65 -27t-65 27t-27 65z" />
<glyph unicode="&#xc0;" horiz-adv-x="921" d="M35 18q0 5 2 9l377 1245q3 14 20 14h53q18 0 21 -14l379 -1245q0 -15 -4 -21t-17 -6h-67q-18 0 -21 14l-82 287q-6 18 -22 18h-426q-19 0 -21 -12l-84 -293q-3 -14 -20 -14h-66q-22 0 -22 18zM256 418q0 -8 6.5 -13.5t16.5 -5.5h358q9 0 14 4.5t5.5 9t0.5 13.5l-172 633 q-6 24 -11.5 52t-7.5 44l-3 16h-6q-7 -59 -21 -110l-178 -635q-2 -2 -2 -8zM258 1591q0 5 4 9t10 4h123q17 0 23 -9l108 -157q2 -4 2 -11q0 -8 -10 -8h-35q-14 0 -22 8l-197 154q-6 3 -6 10z" />
<glyph unicode="&#xc1;" horiz-adv-x="921" d="M35 18q0 5 2 9l377 1245q3 14 20 14h53q18 0 21 -14l379 -1245q0 -15 -4 -21t-17 -6h-67q-18 0 -21 14l-82 287q-6 18 -22 18h-426q-19 0 -21 -12l-84 -293q-3 -14 -20 -14h-66q-22 0 -22 18zM256 418q0 -8 6.5 -13.5t16.5 -5.5h358q9 0 14 4.5t5.5 9t0.5 13.5l-172 633 q-6 24 -11.5 52t-7.5 44l-3 16h-6q-7 -59 -21 -110l-178 -635q-2 -2 -2 -8zM371 1427q0 3 4 11l108 157q6 9 23 9h123q6 0 10 -4t4 -9q0 -7 -6 -10l-197 -154q-8 -8 -22 -8h-35q-12 0 -12 8z" />
<glyph unicode="&#xc2;" horiz-adv-x="921" d="M35 18q0 5 2 9l377 1245q3 14 20 14h53q18 0 21 -14l379 -1245q0 -15 -4 -21t-17 -6h-67q-18 0 -21 14l-82 287q-6 18 -22 18h-426q-19 0 -21 -12l-84 -293q-3 -14 -20 -14h-66q-22 0 -22 18zM256 418q0 -8 6.5 -13.5t16.5 -5.5h358q9 0 14 4.5t5.5 9t0.5 13.5l-172 633 q-6 24 -11.5 52t-7.5 44l-3 16h-6q-7 -59 -21 -110l-178 -635q-2 -2 -2 -8zM274 1423q0 4 5 9l135 180q5 8 14 8h66q9 0 14 -8l133 -176q4 -4 4 -13q0 -8 -10 -8h-70q-13 0 -22 15l-72 112q-6 6 -10 6q-7 0 -10 -6l-72 -112q-9 -15 -23 -15h-69q-13 0 -13 8z" />
<glyph unicode="&#xc3;" horiz-adv-x="921" d="M35 18q0 5 2 9l377 1245q3 14 20 14h53q18 0 21 -14l379 -1245q0 -15 -4 -21t-17 -6h-67q-18 0 -21 14l-82 287q-6 18 -22 18h-426q-19 0 -21 -12l-84 -293q-3 -14 -20 -14h-66q-22 0 -22 18zM217 1483q0 5 6 14q36 50 64 72t63 22q46 0 109 -39t98 -39q41 0 98 60 q6 6 13 6q4 0 12 -8l18 -19q7 -7 7 -10q0 -5 -5 -10q-37 -58 -69 -83.5t-68 -25.5q-38 0 -74 20t-69 40t-64 20q-41 0 -94 -53q-6 -6 -10 -6q-2 0 -4 2t-9.5 10.5t-17.5 18.5q-4 4 -4 8zM256 418q0 -8 6.5 -13.5t16.5 -5.5h358q9 0 14 4.5t5.5 9t0.5 13.5l-172 633 q-6 24 -11.5 52t-7.5 44l-3 16h-6q-7 -59 -21 -110l-178 -635q-2 -2 -2 -8z" />
<glyph unicode="&#xc4;" horiz-adv-x="921" d="M35 18q0 5 2 9l377 1245q3 14 20 14h53q18 0 21 -14l379 -1245q0 -15 -4 -21t-17 -6h-67q-18 0 -21 14l-82 287q-6 18 -22 18h-426q-19 0 -21 -12l-84 -293q-3 -14 -20 -14h-66q-22 0 -22 18zM236 1503q0 31 20 53.5t49 22.5t50.5 -22.5t21.5 -53.5t-21.5 -53.5 t-50.5 -22.5t-49 22.5t-20 53.5zM256 418q0 -8 6.5 -13.5t16.5 -5.5h358q9 0 14 4.5t5.5 9t0.5 13.5l-172 633q-6 24 -11.5 52t-7.5 44l-3 16h-6q-7 -59 -21 -110l-178 -635q-2 -2 -2 -8zM545 1503q0 31 20 53.5t49 22.5t50.5 -22.5t21.5 -53.5t-21.5 -53.5t-50.5 -22.5 t-49 22.5t-20 53.5z" />
<glyph unicode="&#xc5;" horiz-adv-x="921" d="M35 18q0 3 2 10t4.5 15.5t3.5 11.5l344 1133q8 24 8 31q0 10 -12 16q-82 37 -82 131v66q0 66 43.5 105.5t114.5 39.5q69 0 116.5 -40t47.5 -105v-66q0 -44 -24 -78.5t-64 -52.5q-13 -7 -13 -14q0 -2 1.5 -7.5t3.5 -13t3 -10.5l355 -1163q0 -15 -4 -21t-17 -6h-67 q-18 0 -21 14l-84 293q-2 12 -20 12h-426q-19 0 -21 -12l-84 -293q-3 -14 -20 -14h-66q-22 0 -22 18zM256 418q0 -8 6.5 -13.5t16.5 -5.5h358q9 0 14 4.5t5.5 9t0.5 13.5l-172 633q-6 23 -11 49t-8 43.5t-3 19.5h-6q0 -1 -3 -19.5t-7.5 -43t-10.5 -47.5l-170 -602 q-10 -30 -10 -41zM367 1366q0 -42 24.5 -65t69.5 -23q46 0 73 24t27 64v66q0 40 -27 64t-73 24q-45 0 -69.5 -23.5t-24.5 -64.5v-66z" />
<glyph unicode="&#xc6;" horiz-adv-x="1427" d="M-90 16q0 9 4 15l737 1245q7 10 19 10h655q21 0 21 -20v-39q0 -21 -21 -21h-553q-20 0 -20 -20v-471q0 -21 20 -21h455q20 0 20 -20v-41q0 -21 -20 -21h-455q-20 0 -20 -20v-490q0 -20 20 -20h553q21 0 21 -21v-41q0 -20 -21 -20h-657q-21 0 -21 20v279q0 20 -20 20h-424 q-16 0 -21 -8l-172 -301q-7 -10 -18 -10h-60q-22 0 -22 16zM246 416q0 -17 22 -17h359q20 0 20 21v538q0 53 1 90t2 53t1 17h-6q-10 -31 -37 -76l-358 -612q-4 -6 -4 -14z" />
<glyph unicode="&#xc7;" horiz-adv-x="946" d="M150 307v678q0 147 93.5 236.5t250.5 89.5h65q130 0 215 -60q23 -15 55.5 -48.5t32.5 -45.5q0 -11 -14 -18l-53 -27q-8 -4 -13 -4q-7 0 -10 6q-92 113 -213 113h-65q-104 0 -172 -69t-68 -173v-678q0 -101 68.5 -173.5t171.5 -72.5h65q131 0 211 115q6 6 12 6q7 0 27 -10 l37 -16q14 -7 14 -21q0 -6 -2 -10q-97 -142 -285 -145q-17 0 -26 -17l-51 -104q-9 -13 -9 -23q0 -8 7 -12q106 -56 106 -139v-19q0 -80 -56 -128t-138 -48h-66q-11 0 -19 7t-8 20v16q0 27 27 27h66q45 0 74.5 30.5t29.5 75.5v19q0 49 -98 94q-21 9 -21 28q0 7 4 19l64 135 q2 4 2 10q0 8 -12 11q-138 13 -218.5 101.5t-80.5 223.5z" />
<glyph unicode="&#xc8;" horiz-adv-x="946" d="M170 20v1246q0 20 20 20h654q20 0 20 -20v-39q0 -21 -20 -21h-549q-21 0 -21 -20v-471q0 -21 21 -21h450q21 0 21 -20v-41q0 -21 -21 -21h-450q-21 0 -21 -20v-490q0 -20 21 -20h549q20 0 20 -21v-41q0 -20 -20 -20h-654q-20 0 -20 20zM354 1591q0 5 4.5 9t10.5 4h123 q16 0 22 -9l109 -157q2 -4 2 -11q0 -8 -11 -8h-34q-15 0 -23 8l-197 154q-6 3 -6 10z" />
<glyph unicode="&#xc9;" horiz-adv-x="946" d="M170 20v1246q0 20 20 20h654q20 0 20 -20v-39q0 -21 -20 -21h-549q-21 0 -21 -20v-471q0 -21 21 -21h450q21 0 21 -20v-41q0 -21 -21 -21h-450q-21 0 -21 -20v-490q0 -20 21 -20h549q20 0 20 -21v-41q0 -20 -20 -20h-654q-20 0 -20 20zM426 1427q0 3 4 11l109 157 q6 9 22 9h123q6 0 10 -4t4 -9q0 -7 -6 -10l-196 -154q-8 -8 -23 -8h-35q-12 0 -12 8z" />
<glyph unicode="&#xca;" horiz-adv-x="946" d="M170 20v1246q0 20 20 20h654q20 0 20 -20v-39q0 -21 -20 -21h-549q-21 0 -21 -20v-471q0 -21 21 -21h450q21 0 21 -20v-41q0 -21 -21 -21h-450q-21 0 -21 -20v-490q0 -20 21 -20h549q20 0 20 -21v-41q0 -20 -20 -20h-654q-20 0 -20 20zM330 1423q0 5 4 9l135 180 q5 8 14 8h66q9 0 14 -8l133 -176q4 -4 4 -13q0 -8 -10 -8h-69q-14 0 -23 15l-72 112q-6 6 -10 6q-7 0 -10 -6l-72 -112q-9 -15 -22 -15h-70q-12 0 -12 8z" />
<glyph unicode="&#xcb;" horiz-adv-x="946" d="M170 20v1246q0 20 20 20h654q20 0 20 -20v-39q0 -21 -20 -21h-549q-21 0 -21 -20v-471q0 -21 21 -21h450q21 0 21 -20v-41q0 -21 -21 -21h-450q-21 0 -21 -20v-490q0 -20 21 -20h549q20 0 20 -21v-41q0 -20 -20 -20h-654q-20 0 -20 20zM291 1503q0 31 20 53.5t49 22.5 t50.5 -22.5t21.5 -53.5t-21.5 -53.5t-50.5 -22.5t-49 22.5t-20 53.5zM600 1503q0 31 20.5 53.5t49.5 22.5t50 -22.5t21 -53.5t-21 -53.5t-50 -22.5t-49.5 22.5t-20.5 53.5z" />
<glyph unicode="&#xcc;" horiz-adv-x="442" d="M-23 1591q0 5 4.5 9t10.5 4h123q16 0 22 -9l109 -157q2 -4 2 -11q0 -8 -10 -8h-35q-15 0 -23 8l-196 154q-7 3 -7 10zM170 20v1246q0 20 20 20h64q20 0 20 -20v-1246q0 -20 -20 -20h-64q-20 0 -20 20z" />
<glyph unicode="&#xcd;" horiz-adv-x="442" d="M170 20v1246q0 20 20 20h64q20 0 20 -20v-1246q0 -20 -20 -20h-64q-20 0 -20 20zM193 1427q0 3 4 11l108 157q6 9 23 9h123q6 0 10 -4t4 -9q0 -7 -6 -10l-197 -154q-8 -8 -22 -8h-35q-12 0 -12 8z" />
<glyph unicode="&#xce;" horiz-adv-x="442" d="M35 1423q0 5 4 9l135 180q5 8 14 8h66q9 0 14 -8l133 -176q5 -5 5 -13t-11 -8h-69q-14 0 -23 15l-72 112q-6 6 -10 6q-7 0 -10 -6l-72 -112q-9 -15 -22 -15h-70q-12 0 -12 8zM170 20v1246q0 20 20 20h64q20 0 20 -20v-1246q0 -20 -20 -20h-64q-20 0 -20 20z" />
<glyph unicode="&#xcf;" horiz-adv-x="442" d="M-4 1503q0 31 20.5 53.5t49.5 22.5t50 -22.5t21 -53.5t-21 -53.5t-50 -22.5t-49.5 22.5t-20.5 53.5zM170 20v1246q0 20 20 20h64q20 0 20 -20v-1246q0 -20 -20 -20h-64q-20 0 -20 20zM305 1503q0 31 20.5 53.5t49.5 22.5t50 -22.5t21 -53.5t-21 -53.5t-50 -22.5 t-49.5 22.5t-20.5 53.5z" />
<glyph unicode="&#xd0;" horiz-adv-x="1077" d="M47 612v62q0 20 21 20h86q16 0 16 19v553q0 20 20 20h390q159 0 254.5 -92.5t95.5 -249.5v-594q0 -159 -95.5 -254.5t-254.5 -95.5h-390q-20 0 -20 20v553q0 19 -16 19h-86q-21 0 -21 20zM274 102q0 -20 21 -20h285q104 0 174.5 71t70.5 175v637q0 100 -70.5 170.5 t-174.5 70.5h-285q-21 0 -21 -20v-475q0 -17 19 -17h182q21 0 21 -20v-62q0 -20 -21 -20h-184q-17 0 -17 -17v-473z" />
<glyph unicode="&#xd1;" horiz-adv-x="1128" d="M170 20v1246q0 20 20 20h62q11 0 18 -10l549 -995q11 -20 22.5 -47.5t16.5 -45.5l6 -18h6q-14 121 -14 283v813q0 20 21 20h63q21 0 21 -20v-1246q0 -20 -21 -20h-66q-11 0 -18 10l-545 985q-13 24 -23.5 50.5t-15.5 41.5l-4 15h-6q12 -92 12 -254v-828q0 -20 -20 -20 h-64q-20 0 -20 20zM319 1483q0 3 7 14q36 50 64 72t63 22q46 0 108.5 -39t97.5 -39q42 0 99 60q6 6 12 6q4 0 12 -8l19 -19q6 -6 6 -10q0 -6 -4 -10q-37 -58 -69 -83.5t-68 -25.5q-38 0 -74 20t-69 40t-64 20q-41 0 -94 -53q-6 -6 -11 -6q-1 0 -2 0.5t-3 3t-4.5 5.5t-8 9 t-12.5 13q-5 5 -5 8z" />
<glyph unicode="&#xd2;" d="M150 307v678q0 147 93.5 236.5t250.5 89.5h65q158 0 253 -89.5t95 -236.5v-678q0 -147 -95 -237t-253 -90h-65q-157 0 -250.5 90t-93.5 237zM254 307q0 -101 68.5 -173.5t171.5 -72.5h65q100 0 172 73t72 173v678q0 103 -71.5 172.5t-172.5 69.5h-65q-104 0 -172 -69 t-68 -173v-678zM365 1591q0 5 4 9t10 4h123q16 0 22 -9l109 -157q2 -4 2 -11q0 -8 -10 -8h-35q-15 0 -23 8l-196 154q-6 3 -6 10z" />
<glyph unicode="&#xd3;" d="M150 307v678q0 147 93.5 236.5t250.5 89.5h65q158 0 253 -89.5t95 -236.5v-678q0 -147 -95 -237t-253 -90h-65q-157 0 -250.5 90t-93.5 237zM254 307q0 -101 68.5 -173.5t171.5 -72.5h65q100 0 172 73t72 173v678q0 103 -71.5 172.5t-172.5 69.5h-65q-104 0 -172 -69 t-68 -173v-678zM416 1427q0 3 4 11l108 157q6 9 23 9h123q6 0 10 -4t4 -9q0 -7 -6 -10l-197 -154q-8 -8 -22 -8h-35q-12 0 -12 8z" />
<glyph unicode="&#xd4;" d="M150 307v678q0 147 93.5 236.5t250.5 89.5h65q158 0 253 -89.5t95 -236.5v-678q0 -147 -95 -237t-253 -90h-65q-157 0 -250.5 90t-93.5 237zM254 307q0 -101 68.5 -173.5t171.5 -72.5h65q100 0 172 73t72 173v678q0 103 -71.5 172.5t-172.5 69.5h-65q-104 0 -172 -69 t-68 -173v-678zM340 1423q0 5 4 9l135 180q5 8 15 8h65q9 0 14 -8l134 -176q4 -4 4 -13q0 -8 -11 -8h-69q-14 0 -23 15l-71 112q-6 6 -11 6q-7 0 -10 -6l-72 -112q-9 -15 -22 -15h-70q-12 0 -12 8z" />
<glyph unicode="&#xd5;" d="M150 307v678q0 147 93.5 236.5t250.5 89.5h65q158 0 253 -89.5t95 -236.5v-678q0 -147 -95 -237t-253 -90h-65q-157 0 -250.5 90t-93.5 237zM254 307q0 -101 68.5 -173.5t171.5 -72.5h65q100 0 172 73t72 173v678q0 103 -71.5 172.5t-172.5 69.5h-65q-104 0 -172 -69 t-68 -173v-678zM283 1483q0 5 6 14q36 50 64 72t63 22q46 0 109 -39t98 -39q41 0 98 60q6 6 12 6q4 0 12 -8l19 -19q6 -6 6 -10q0 -6 -4 -10q-37 -58 -69 -83.5t-68 -25.5q-38 0 -74 20t-69 40t-64 20q-41 0 -94 -53q-6 -6 -11 -6q-1 0 -2 0.5t-3 3t-4.5 5.5t-8 9t-12.5 13 q-4 4 -4 8z" />
<glyph unicode="&#xd6;" d="M150 307v678q0 147 93.5 236.5t250.5 89.5h65q158 0 253 -89.5t95 -236.5v-678q0 -147 -95 -237t-253 -90h-65q-157 0 -250.5 90t-93.5 237zM254 307q0 -101 68.5 -173.5t171.5 -72.5h65q100 0 172 73t72 173v678q0 103 -71.5 172.5t-172.5 69.5h-65q-104 0 -172 -69 t-68 -173v-678zM301 1503q0 31 20.5 53.5t49.5 22.5t50 -22.5t21 -53.5t-21 -53.5t-50 -22.5t-49.5 22.5t-20.5 53.5zM610 1503q0 31 20.5 53.5t49.5 22.5t50.5 -22.5t21.5 -53.5t-21.5 -53.5t-50.5 -22.5t-49.5 22.5t-20.5 53.5z" />
<glyph unicode="&#xd7;" d="M172 172q0 6 8 14l281 281q8 8 8 14q0 7 -8 15l-277 278q-8 5 -8 14q0 7 8 15l23 24q9 9 14 9q1 0 15 -9l278 -278q5 -8 14 -8q7 0 15 8l278 278q9 9 15 9l14 -9l27 -26q8 -12 8 -15q0 -6 -8 -14l-279 -278q-8 -8 -8 -15q0 -9 8 -14l279 -279q8 -12 8 -14q0 -6 -8 -14 l-25 -23q-8 -8 -14 -8q-10 0 -15 8l-278 277q-8 8 -15 8q-6 0 -14 -8l-280 -281q-8 -8 -15 -8q-9 0 -14 8l-27 27q-8 5 -8 14z" />
<glyph unicode="&#xd8;" d="M150 307v678q0 147 93.5 236.5t250.5 89.5h65q158 0 253 -89.5t95 -236.5v-678q0 -147 -95 -237t-253 -90h-65q-157 0 -250.5 90t-93.5 237zM254 307q0 -41 12 -78q3 -11 12 -12.5t15 10.5l397 924q13 33 -10 45q-54 31 -121 31h-65q-104 0 -172 -69t-68 -173v-678z M348 145q-12 -28 8 -41q62 -43 138 -43h65q100 0 172 73t72 173v678q0 44 -21 98q-6 13 -13.5 12t-12.5 -12z" />
<glyph unicode="&#xd9;" horiz-adv-x="1075" d="M160 307v959q0 20 20 20h64q20 0 20 -20v-959q0 -108 65 -177t175 -69h65q108 0 176 70t68 176v959q0 20 21 20h63q21 0 21 -20v-959q0 -141 -98 -234t-251 -93h-65q-156 0 -250 92.5t-94 234.5zM375 1591q0 5 4 9t10 4h123q17 0 23 -9l108 -157q2 -4 2 -11q0 -8 -10 -8 h-35q-14 0 -22 8l-197 154q-6 3 -6 10z" />
<glyph unicode="&#xda;" horiz-adv-x="1075" d="M160 307v959q0 20 20 20h64q20 0 20 -20v-959q0 -108 65 -177t175 -69h65q108 0 176 70t68 176v959q0 20 21 20h63q21 0 21 -20v-959q0 -141 -98 -234t-251 -93h-65q-156 0 -250 92.5t-94 234.5zM426 1427q0 3 4 11l109 157q6 9 22 9h123q6 0 10 -4t4 -9q0 -7 -6 -10 l-196 -154q-8 -8 -23 -8h-35q-12 0 -12 8z" />
<glyph unicode="&#xdb;" horiz-adv-x="1075" d="M160 307v959q0 20 20 20h64q20 0 20 -20v-959q0 -108 65 -177t175 -69h65q108 0 176 70t68 176v959q0 20 21 20h63q21 0 21 -20v-959q0 -141 -98 -234t-251 -93h-65q-156 0 -250 92.5t-94 234.5zM350 1423q0 5 4 9l135 180q5 8 15 8h65q10 0 15 -8l133 -176q4 -4 4 -13 q0 -8 -10 -8h-70q-14 0 -23 15l-71 112q-6 6 -10 6q-8 0 -11 -6l-71 -112q-9 -15 -23 -15h-70q-12 0 -12 8z" />
<glyph unicode="&#xdc;" horiz-adv-x="1075" d="M160 307v959q0 20 20 20h64q20 0 20 -20v-959q0 -108 65 -177t175 -69h65q108 0 176 70t68 176v959q0 20 21 20h63q21 0 21 -20v-959q0 -141 -98 -234t-251 -93h-65q-156 0 -250 92.5t-94 234.5zM311 1503q0 31 20.5 53.5t49.5 22.5t50.5 -22.5t21.5 -53.5t-21.5 -53.5 t-50.5 -22.5t-49.5 22.5t-20.5 53.5zM621 1503q0 31 20 53.5t49 22.5t50.5 -22.5t21.5 -53.5t-21.5 -53.5t-50.5 -22.5t-49 22.5t-20 53.5z" />
<glyph unicode="&#xdd;" horiz-adv-x="847" d="M18 1270q0 16 23 16h78q10 0 18 -12l273 -553q6 -16 18 -16q8 0 18 16l265 553q8 12 18 12h80q22 0 22 -16q0 -3 -4 -15l-352 -655v-580q0 -20 -20 -20h-64q-20 0 -20 20v580l-348 655q-5 7 -5 15zM313 1427q0 3 4 11l109 157q6 9 23 9h122q6 0 10.5 -4t4.5 -9 q0 -7 -6 -10l-197 -154q-8 -8 -23 -8h-34q-13 0 -13 8z" />
<glyph unicode="&#xde;" horiz-adv-x="954" d="M170 20v1246q0 20 20 20h64q20 0 20 -20v-207q0 -19 21 -19h285q159 0 254.5 -93t95.5 -249q0 -141 -97.5 -236t-252.5 -95h-285q-21 0 -21 -21v-326q0 -20 -20 -20h-64q-20 0 -20 20zM274 469q0 -20 21 -20h285q104 0 174.5 72t70.5 177v21q0 101 -70.5 171.5 t-174.5 70.5h-285q-21 0 -21 -21v-471z" />
<glyph unicode="&#xdf;" horiz-adv-x="1001" d="M88 733v41q0 21 21 21h57q20 0 20 20v150q0 157 95.5 251.5t253.5 94.5q161 0 255.5 -93.5t94.5 -252.5v-45q0 -74 -51.5 -143t-124.5 -99q-19 -10 -19 -23q0 -12 19 -18q82 -27 129 -98t47 -162v-53q0 -177 -123 -271q-29 -23 -83 -47t-81 -24q-16 0 -16 20v47 q0 18 16 21q84 23 133 87.5t49 149.5v64q0 85 -48.5 147.5t-133.5 85.5q-16 3 -16 21v59q0 18 16 21q85 25 133.5 88.5t48.5 150.5v41q0 104 -71 173t-174 69q-108 0 -176 -68.5t-68 -173.5v-965q0 -20 -21 -20h-63q-21 0 -21 20v672q0 21 -20 21h-57q-21 0 -21 20z" />
<glyph unicode="&#xe0;" horiz-adv-x="897" d="M92 227v27q0 101 71 166t175 65h297q20 0 20 21v80q0 102 -68.5 169.5t-174.5 67.5q-60 0 -115.5 -29t-93.5 -81q-10 -14 -25 -8l-57 28q-21 10 -8 29q41 56 86 86q89 59 213 59q158 0 253 -87.5t95 -233.5v-566q0 -20 -21 -20h-39q-20 0 -20 20v95q0 20 -14 23t-25 -11 q-45 -59 -102.5 -93t-116.5 -34h-84q-104 0 -175 64t-71 163zM195 227q0 -61 40 -103t103 -42h84q73 0 137.5 58.5t95.5 142.5v100q0 20 -20 20h-297q-60 0 -101.5 -41.5t-41.5 -101.5v-33zM217 1249q0 8 7.5 13.5t17.5 5.5h108q14 0 19 -8l159 -224q4 -8 4 -12q0 -8 -14 -8 h-8q-16 0 -37 16l-246 201q-10 7 -10 16z" />
<glyph unicode="&#xe1;" horiz-adv-x="897" d="M92 227v27q0 101 71 166t175 65h297q20 0 20 21v80q0 102 -68.5 169.5t-174.5 67.5q-60 0 -115.5 -29t-93.5 -81q-10 -14 -25 -8l-57 28q-21 10 -8 29q41 56 86 86q89 59 213 59q158 0 253 -87.5t95 -233.5v-566q0 -20 -21 -20h-39q-20 0 -20 20v95q0 20 -14 23t-25 -11 q-45 -59 -102.5 -93t-116.5 -34h-84q-104 0 -175 64t-71 163zM195 227q0 -61 40 -103t103 -42h84q73 0 137.5 58.5t95.5 142.5v100q0 20 -20 20h-297q-60 0 -101.5 -41.5t-41.5 -101.5v-33zM332 1024q0 4 4 12l160 224q5 8 18 8h109q10 0 17 -5.5t7 -13.5q0 -9 -10 -16 l-246 -201q-21 -16 -37 -16h-8q-14 0 -14 8z" />
<glyph unicode="&#xe2;" horiz-adv-x="897" d="M92 227v27q0 101 71 166t175 65h297q20 0 20 21v80q0 102 -68.5 169.5t-174.5 67.5q-60 0 -115.5 -29t-93.5 -81q-10 -14 -25 -8l-57 28q-21 10 -8 29q41 56 86 86q89 59 213 59q158 0 253 -87.5t95 -233.5v-566q0 -20 -21 -20h-39q-20 0 -20 20v95q0 20 -14 23t-25 -11 q-45 -59 -102.5 -93t-116.5 -34h-84q-104 0 -175 64t-71 163zM195 227q0 -61 40 -103t103 -42h84q73 0 137.5 58.5t95.5 142.5v100q0 20 -20 20h-297q-60 0 -101.5 -41.5t-41.5 -101.5v-33zM242 1038q0 3 4 11l153 192q8 8 17 8h55q8 0 16 -8l154 -192q4 -8 4 -11 q0 -14 -16 -14h-56q-10 0 -20 10l-94 123q-10 10 -17 10t-14 -10l-94 -123q-10 -10 -21 -10h-55q-16 0 -16 14z" />
<glyph unicode="&#xe3;" horiz-adv-x="897" d="M92 227v27q0 101 71 166t175 65h297q20 0 20 21v80q0 102 -68.5 169.5t-174.5 67.5q-60 0 -115.5 -29t-93.5 -81q-10 -14 -25 -8l-57 28q-21 10 -8 29q41 56 86 86q89 59 213 59q158 0 253 -87.5t95 -233.5v-566q0 -20 -21 -20h-39q-20 0 -20 20v95q0 20 -14 23t-25 -11 q-45 -59 -102.5 -93t-116.5 -34h-84q-104 0 -175 64t-71 163zM158 1108q0 4 4 12q67 111 147 111q50 0 115 -47l47 -33q58 -37 100 -37q55 0 119 53q7 7 10 7q5 0 19 -7q8 -3 8 -12q0 -6 -4 -14q-73 -111 -152 -111q-18 0 -40.5 8.5t-37.5 17t-47 29.5l-40 25q-54 33 -97 33 q-53 0 -112 -49q-7 -7 -13 -7q-2 0 -4 1.5t-6 3.5l-8 4q-8 3 -8 12zM195 227q0 -61 40 -103t103 -42h84q73 0 137.5 58.5t95.5 142.5v100q0 20 -20 20h-297q-60 0 -101.5 -41.5t-41.5 -101.5v-33z" />
<glyph unicode="&#xe4;" horiz-adv-x="897" d="M92 227v27q0 101 71 166t175 65h297q20 0 20 21v80q0 102 -68.5 169.5t-174.5 67.5q-60 0 -115.5 -29t-93.5 -81q-10 -14 -25 -8l-57 28q-21 10 -8 29q41 56 86 86q89 59 213 59q158 0 253 -87.5t95 -233.5v-566q0 -20 -21 -20h-39q-20 0 -20 20v95q0 20 -14 23t-25 -11 q-45 -59 -102.5 -93t-116.5 -34h-84q-104 0 -175 64t-71 163zM190 1120q0 34 24 57t58 23t57 -23t23 -57t-23 -58t-57 -24t-58 24t-24 58zM195 227q0 -61 40 -103t103 -42h84q73 0 137.5 58.5t95.5 142.5v100q0 20 -20 20h-297q-60 0 -101.5 -41.5t-41.5 -101.5v-33z M535 1120q0 34 23.5 57t57.5 23t57 -23t23 -57t-23 -58t-57 -24t-57.5 24t-23.5 58z" />
<glyph unicode="&#xe5;" horiz-adv-x="897" d="M92 227v27q0 101 71 166t175 65h297q20 0 20 21v80q0 102 -68.5 169.5t-174.5 67.5q-60 0 -115.5 -29t-93.5 -81q-10 -14 -25 -8l-57 28q-21 10 -8 29q41 56 86 86q89 59 213 59q158 0 253 -87.5t95 -233.5v-566q0 -20 -21 -20h-39q-20 0 -20 20v95q0 20 -14 23t-25 -11 q-45 -59 -102.5 -93t-116.5 -34h-84q-104 0 -175 64t-71 163zM195 227q0 -61 40 -103t103 -42h84q73 0 137.5 58.5t95.5 142.5v100q0 20 -20 20h-297q-60 0 -101.5 -41.5t-41.5 -101.5v-33zM283 1137v65q0 66 43 106t114 40q69 0 116.5 -40.5t47.5 -105.5v-65 q0 -65 -47.5 -105.5t-116.5 -40.5q-71 0 -114 40t-43 106zM346 1137q0 -42 24.5 -65t69.5 -23q46 0 73.5 24t27.5 64v65q0 40 -27.5 64t-73.5 24q-45 0 -69.5 -23.5t-24.5 -64.5v-65z" />
<glyph unicode="&#xe6;" horiz-adv-x="1468" d="M92 215v47q0 106 70 172t176 66h297q20 0 20 20v70q0 100 -69 166.5t-174 66.5q-60 0 -115.5 -29t-93.5 -81q-10 -14 -25 -8l-57 28q-21 10 -8 29q41 56 86 86q89 59 213 59q94 0 168.5 -33t119.5 -94q13 -16 23 -2q47 62 118.5 98.5t159.5 36.5q161 0 256 -97t95 -236 v-142q0 -20 -21 -20h-551q-20 0 -20 -21v-90q0 -107 66.5 -176.5t174.5 -69.5h31q128 0 213 115q8 11 21 4l53 -24q10 -5 13.5 -13.5t-1.5 -17.5q-27 -42 -78 -80q-87 -65 -221 -65h-31q-111 0 -191.5 45.5t-119.5 128.5q-7 14 -18 0q-43 -67 -112 -120.5t-138 -53.5h-84 q-107 0 -176.5 64.5t-69.5 170.5zM195 215q0 -67 39.5 -110.5t103.5 -43.5h84q72 0 136.5 67t96.5 155v114q0 21 -20 21h-297q-63 0 -103 -43t-40 -107v-53zM760 530q0 -17 4 -23.5t16 -6.5h447q20 0 20 20v53q0 110 -69 184t-177 74q-102 0 -171.5 -69.5t-69.5 -171.5v-60z " />
<glyph unicode="&#xe7;" horiz-adv-x="860" d="M119 307v283q0 79 41.5 152t122.5 122t182 49q140 0 221 -59q21 -15 51.5 -48t30.5 -44q0 -12 -14 -19l-35 -16q-24 -12 -29 -12q-6 0 -12 6q-93 110 -213 110q-102 0 -172 -69.5t-70 -171.5v-283q0 -107 67 -176.5t175 -69.5q124 0 213 115q6 6 10 6q8 0 64 -26 q14 -7 14 -21q0 -6 -2 -10q-82 -127 -242 -143q-24 -3 -33 -21l-55 -115q-2 -4 -2 -10q0 -9 6 -12q107 -57 107 -139v-19q0 -79 -56.5 -127.5t-138.5 -48.5h-65q-11 0 -19 7t-8 20v16q0 27 27 27h65q45 0 75 30.5t30 75.5v19q0 49 -99 94q-20 9 -20 28q0 7 4 19l63 135 q3 6 3 10q0 12 -15 15q-126 22 -199 108t-73 213z" />
<glyph unicode="&#xe8;" horiz-adv-x="931" d="M119 307v283q0 79 41.5 152t122.5 122t182 49q161 0 255.5 -97t94.5 -236v-121q0 -21 -20 -21h-551q-21 0 -21 -20v-111q0 -107 67 -176.5t175 -69.5h31q128 0 213 115q8 10 20 4l53 -24q25 -13 13 -31q-37 -53 -93 -90q-83 -55 -206 -55h-31q-157 0 -251.5 90t-94.5 237 zM223 551q0 -17 4.5 -24t16.5 -7h446q21 0 21 21v32q0 110 -69 184t-177 74q-102 0 -172 -69.5t-70 -171.5v-39zM260 1249q0 8 7.5 13.5t17.5 5.5h108q14 0 19 -8l159 -224q4 -8 4 -12q0 -8 -14 -8h-8q-16 0 -37 16l-246 201q-10 7 -10 16z" />
<glyph unicode="&#xe9;" horiz-adv-x="931" d="M119 307v283q0 79 41.5 152t122.5 122t182 49q161 0 255.5 -97t94.5 -236v-121q0 -21 -20 -21h-551q-21 0 -21 -20v-111q0 -107 67 -176.5t175 -69.5h31q128 0 213 115q8 10 20 4l53 -24q25 -13 13 -31q-37 -53 -93 -90q-83 -55 -206 -55h-31q-157 0 -251.5 90t-94.5 237 zM223 551q0 -17 4.5 -24t16.5 -7h446q21 0 21 21v32q0 110 -69 184t-177 74q-102 0 -172 -69.5t-70 -171.5v-39zM354 1024q0 4 4 12l160 224q5 8 19 8h108q10 0 17.5 -5.5t7.5 -13.5q0 -9 -11 -16l-245 -201q-21 -16 -37 -16h-8q-15 0 -15 8z" />
<glyph unicode="&#xea;" horiz-adv-x="931" d="M119 307v283q0 79 41.5 152t122.5 122t182 49q161 0 255.5 -97t94.5 -236v-121q0 -21 -20 -21h-551q-21 0 -21 -20v-111q0 -107 67 -176.5t175 -69.5h31q128 0 213 115q8 10 20 4l53 -24q25 -13 13 -31q-37 -53 -93 -90q-83 -55 -206 -55h-31q-157 0 -251.5 90t-94.5 237 zM223 551q0 -17 4.5 -24t16.5 -7h446q21 0 21 21v32q0 110 -69 184t-177 74q-102 0 -172 -69.5t-70 -171.5v-39zM264 1038q0 3 4 11l154 192q8 8 16 8h56q8 0 16 -8l154 -192q4 -8 4 -11q0 -14 -17 -14h-55q-11 0 -21 10l-94 123q-10 10 -16 10q-7 0 -14 -10l-95 -123 q-10 -10 -20 -10h-55q-17 0 -17 14z" />
<glyph unicode="&#xeb;" horiz-adv-x="931" d="M119 307v283q0 79 41.5 152t122.5 122t182 49q161 0 255.5 -97t94.5 -236v-121q0 -21 -20 -21h-551q-21 0 -21 -20v-111q0 -107 67 -176.5t175 -69.5h31q128 0 213 115q8 10 20 4l53 -24q25 -13 13 -31q-37 -53 -93 -90q-83 -55 -206 -55h-31q-157 0 -251.5 90t-94.5 237 zM213 1120q0 34 24 57t58 23t57 -23t23 -57t-23 -58t-57 -24t-58 24t-24 58zM223 551q0 -17 4.5 -24t16.5 -7h446q21 0 21 21v32q0 110 -69 184t-177 74q-102 0 -172 -69.5t-70 -171.5v-39zM557 1120q0 34 24 57t58 23t57 -23t23 -57t-23 -58t-57 -24t-58 24t-24 58z" />
<glyph unicode="&#xec;" horiz-adv-x="401" d="M-66 1249q0 8 7.5 13.5t17.5 5.5h109q13 0 18 -8l160 -224q4 -8 4 -12q0 -8 -14 -8h-9q-16 0 -37 16l-245 201q-11 7 -11 16zM150 20v852q0 21 20 21h63q21 0 21 -21v-852q0 -20 -21 -20h-63q-20 0 -20 20z" />
<glyph unicode="&#xed;" horiz-adv-x="401" d="M150 20v852q0 21 20 21h63q21 0 21 -21v-852q0 -20 -21 -20h-63q-20 0 -20 20zM152 1024q0 4 4 12l159 224q5 8 19 8h108q10 0 17.5 -5.5t7.5 -13.5q0 -9 -10 -16l-246 -201q-21 -16 -37 -16h-8q-14 0 -14 8z" />
<glyph unicode="&#xee;" horiz-adv-x="401" d="M0 1038q0 3 4 11l154 192q8 8 16 8h55q9 0 17 -8l153 -192q4 -8 4 -11q0 -14 -16 -14h-55q-11 0 -21 10l-94 123q-10 10 -16 10q-8 0 -15 -10l-94 -123q-10 -10 -20 -10h-56q-16 0 -16 14zM150 20v852q0 21 20 21h63q21 0 21 -21v-852q0 -20 -21 -20h-63q-20 0 -20 20z " />
<glyph unicode="&#xef;" horiz-adv-x="401" d="M-51 1120q0 34 24 57t58 23t57 -23t23 -57t-23 -58t-57 -24t-58 24t-24 58zM150 20v852q0 21 20 21h63q21 0 21 -21v-852q0 -20 -21 -20h-63q-20 0 -20 20zM293 1120q0 34 24 57t58 23t57 -23t23 -57t-23 -58t-57 -24t-58 24t-24 58z" />
<glyph unicode="&#xf0;" horiz-adv-x="929" d="M119 307v283q0 146 93.5 234.5t248.5 88.5q29 0 41 -2l-135 136l-185 -86q-9 -4 -18.5 -1t-9.5 11v28q0 28 12 33l147 68l-159 160q-9 10 -2 18t22 8h72q4 0 6.5 -1t4 -2.5t4.5 -5t5 -5.5l133 -131l201 94q8 3 18.5 -0.5t10.5 -11.5v-35q0 -20 -17 -27l-157 -74l297 -299 q61 -80 61 -198v-283q0 -140 -98 -233.5t-254 -93.5q-155 0 -248.5 93t-93.5 234zM223 307q0 -109 66 -177.5t172 -68.5q104 0 176 71t72 175v283q0 107 -71 174t-177 67q-107 0 -172.5 -65t-65.5 -176v-283z" />
<glyph unicode="&#xf1;" horiz-adv-x="983" d="M150 20v852q0 21 20 21h39q20 0 20 -21v-84q0 -13 7.5 -18t17 -2t16.5 12q44 55 104 84t122 29q157 0 253.5 -90.5t96.5 -233.5v-549q0 -20 -21 -20h-63q-21 0 -21 20v549q0 104 -68 173t-177 69q-102 0 -172 -70t-70 -172v-549q0 -20 -21 -20h-63q-20 0 -20 20z M207 1108q0 4 4 12q67 111 147 111q50 0 115 -47l47 -33q58 -37 101 -37q54 0 118 53q7 7 11 7t18 -7q8 -3 8 -12q0 -6 -4 -14q-73 -111 -151 -111q-18 0 -40.5 8.5t-37.5 17t-47 29.5l-41 25q-54 33 -97 33q-53 0 -112 -49q-7 -7 -13 -7q-2 0 -4 1.5t-6 3.5l-8 4 q-8 3 -8 12z" />
<glyph unicode="&#xf2;" horiz-adv-x="929" d="M119 307v283q0 149 95.5 236t246.5 87q153 0 252.5 -86t99.5 -237v-283q0 -147 -101.5 -237t-250.5 -90t-245.5 90t-96.5 237zM223 307q0 -107 65.5 -176.5t172.5 -69.5q104 0 176 71t72 175v283q0 106 -70.5 173.5t-177.5 67.5q-108 0 -173 -66t-65 -175v-283zM260 1249 q0 8 7.5 13.5t17.5 5.5h108q14 0 19 -8l159 -224q4 -8 4 -12q0 -8 -14 -8h-8q-16 0 -37 16l-246 201q-10 7 -10 16z" />
<glyph unicode="&#xf3;" horiz-adv-x="929" d="M119 307v283q0 149 95.5 236t246.5 87q153 0 252.5 -86t99.5 -237v-283q0 -147 -101.5 -237t-250.5 -90t-245.5 90t-96.5 237zM223 307q0 -107 65.5 -176.5t172.5 -69.5q104 0 176 71t72 175v283q0 106 -70.5 173.5t-177.5 67.5q-108 0 -173 -66t-65 -175v-283zM354 1024 q0 4 4 12l160 224q5 8 19 8h108q10 0 17.5 -5.5t7.5 -13.5q0 -9 -11 -16l-245 -201q-21 -16 -37 -16h-8q-15 0 -15 8z" />
<glyph unicode="&#xf4;" horiz-adv-x="929" d="M119 307v283q0 149 95.5 236t246.5 87q153 0 252.5 -86t99.5 -237v-283q0 -147 -101.5 -237t-250.5 -90t-245.5 90t-96.5 237zM223 307q0 -107 65.5 -176.5t172.5 -69.5q104 0 176 71t72 175v283q0 106 -70.5 173.5t-177.5 67.5q-108 0 -173 -66t-65 -175v-283zM264 1038 q0 3 4 11l154 192q8 8 16 8h56q8 0 16 -8l154 -192q4 -8 4 -11q0 -14 -17 -14h-55q-11 0 -21 10l-94 123q-10 10 -16 10q-7 0 -14 -10l-95 -123q-10 -10 -20 -10h-55q-17 0 -17 14z" />
<glyph unicode="&#xf5;" horiz-adv-x="929" d="M119 307v283q0 149 95.5 236t246.5 87q153 0 252.5 -86t99.5 -237v-283q0 -147 -101.5 -237t-250.5 -90t-245.5 90t-96.5 237zM180 1108q0 4 4 12q67 111 148 111q30 0 54.5 -10.5t59.5 -36.5l48 -33q58 -37 100 -37q55 0 119 53q7 7 10 7q4 0 18 -7q9 -3 9 -12 q0 -4 -5 -14q-73 -111 -151 -111q-18 0 -40.5 8.5t-37.5 17t-47 29.5l-41 25q-54 33 -96 33q-54 0 -113 -49q-7 -7 -12 -7q-2 0 -4.5 1.5t-6.5 3.5l-8 4q-8 3 -8 12zM223 307q0 -107 65.5 -176.5t172.5 -69.5q104 0 176 71t72 175v283q0 106 -70.5 173.5t-177.5 67.5 q-108 0 -173 -66t-65 -175v-283z" />
<glyph unicode="&#xf6;" horiz-adv-x="929" d="M119 307v283q0 149 95.5 236t246.5 87q153 0 252.5 -86t99.5 -237v-283q0 -147 -101.5 -237t-250.5 -90t-245.5 90t-96.5 237zM213 1120q0 34 24 57t58 23t57 -23t23 -57t-23 -58t-57 -24t-58 24t-24 58zM223 307q0 -107 65.5 -176.5t172.5 -69.5q104 0 176 71t72 175 v283q0 106 -70.5 173.5t-177.5 67.5q-108 0 -173 -66t-65 -175v-283zM557 1120q0 34 24 57t58 23t57 -23t23 -57t-23 -58t-57 -24t-58 24t-24 58z" />
<glyph unicode="&#xf7;" d="M96 461v37q0 20 21 20h823q21 0 21 -20v-37q0 -21 -21 -21h-823q-21 0 -21 21zM436 139q0 38 27 65t65 27t65.5 -27t27.5 -65t-27.5 -65t-65.5 -27t-65 27t-27 65zM436 819q0 38 27 65t65 27t65.5 -27t27.5 -65t-27.5 -65t-65.5 -27t-65 27t-27 65z" />
<glyph unicode="&#xf8;" horiz-adv-x="929" d="M119 307v283q0 146 93.5 234.5t248.5 88.5q159 0 255.5 -88.5t96.5 -234.5v-283q0 -140 -98 -233.5t-254 -93.5q-155 0 -248.5 93t-93.5 234zM223 307q0 -79 35 -135q16 -28 29 2l262 606q13 32 -14 41q-38 10 -74 10q-107 0 -172.5 -65t-65.5 -176v-283zM360 113 q-11 -28 11 -37q41 -15 90 -15q104 0 176 71t72 175v283q0 88 -47 147q-20 26 -33 -2z" />
<glyph unicode="&#xf9;" horiz-adv-x="987" d="M139 328v544q0 21 21 21h63q21 0 21 -21v-544q0 -106 70 -176t171 -70q105 0 177.5 71t72.5 175v544q0 21 21 21h63q21 0 21 -21v-852q0 -20 -21 -20h-43q-20 0 -20 20v84q0 13 -7 19t-16 3.5t-16 -11.5q-92 -115 -232 -115q-156 0 -251 92t-95 236zM268 1249 q0 8 7.5 13.5t17.5 5.5h108q14 0 19 -8l160 -224q4 -8 4 -12q0 -8 -15 -8h-8q-16 0 -37 16l-245 201q-11 7 -11 16z" />
<glyph unicode="&#xfa;" horiz-adv-x="987" d="M139 328v544q0 21 21 21h63q21 0 21 -21v-544q0 -106 70 -176t171 -70q105 0 177.5 71t72.5 175v544q0 21 21 21h63q21 0 21 -21v-852q0 -20 -21 -20h-43q-20 0 -20 20v84q0 13 -7 19t-16 3.5t-16 -11.5q-92 -115 -232 -115q-156 0 -251 92t-95 236zM383 1024q0 4 4 12 l160 224q5 8 18 8h109q10 0 17 -5.5t7 -13.5q0 -9 -10 -16l-246 -201q-21 -16 -36 -16h-9q-14 0 -14 8z" />
<glyph unicode="&#xfb;" horiz-adv-x="987" d="M139 328v544q0 21 21 21h63q21 0 21 -21v-544q0 -106 70 -176t171 -70q105 0 177.5 71t72.5 175v544q0 21 21 21h63q21 0 21 -21v-852q0 -20 -21 -20h-43q-20 0 -20 20v84q0 13 -7 19t-16 3.5t-16 -11.5q-92 -115 -232 -115q-156 0 -251 92t-95 236zM293 1038q0 3 4 11 l154 192q8 8 16 8h55q9 0 17 -8l153 -192q4 -8 4 -11q0 -14 -16 -14h-55q-11 0 -21 10l-94 123q-10 10 -16 10q-8 0 -15 -10l-94 -123q-10 -10 -20 -10h-56q-16 0 -16 14z" />
<glyph unicode="&#xfc;" horiz-adv-x="987" d="M139 328v544q0 21 21 21h63q21 0 21 -21v-544q0 -106 70 -176t171 -70q105 0 177.5 71t72.5 175v544q0 21 21 21h63q21 0 21 -21v-852q0 -20 -21 -20h-43q-20 0 -20 20v84q0 13 -7 19t-16 3.5t-16 -11.5q-92 -115 -232 -115q-156 0 -251 92t-95 236zM242 1120q0 34 24 57 t58 23t56.5 -23t22.5 -57t-23 -58t-56 -24q-34 0 -58 24t-24 58zM586 1120q0 34 24 57t58 23t57 -23t23 -57t-23 -58t-57 -24t-58 24t-24 58z" />
<glyph unicode="&#xfd;" horiz-adv-x="987" d="M139 324v548q0 21 21 21h63q21 0 21 -21v-548q0 -100 71.5 -171t173.5 -71t174 70t72 172v548q0 21 21 21h63q21 0 21 -21v-1003q0 -157 -92.5 -253.5t-262.5 -96.5q-138 0 -225 67q-44 35 -70 80q-11 17 13 29l53 26q14 6 23 -6q83 -114 206 -114q109 0 179.5 70 t70.5 175v234q0 21 -12 24t-29 -14q-50 -50 -103.5 -70t-121.5 -20q-140 0 -235 91.5t-95 232.5zM383 1024q0 4 4 12l160 224q5 8 18 8h109q10 0 17 -5.5t7 -13.5q0 -9 -10 -16l-246 -201q-21 -16 -36 -16h-9q-14 0 -14 8z" />
<glyph unicode="&#xfe;" horiz-adv-x="962" d="M150 -440v1706q0 20 20 20h53q21 0 21 -20v-473q0 -12 8.5 -15.5t17.5 6.5q86 109 226 109q157 0 253.5 -92t96.5 -236v-241q0 -141 -95 -232.5t-235 -91.5q-135 0 -225 90q-11 12 -24 10.5t-13 -20.5v-520q0 -21 -21 -21h-63q-20 0 -20 21zM254 324q0 -102 70 -172 t172 -70t173.5 71t71.5 171v241q0 107 -69 176.5t-176 69.5q-99 0 -170.5 -73t-71.5 -173v-241z" />
<glyph unicode="&#xff;" horiz-adv-x="987" d="M139 324v548q0 21 21 21h63q21 0 21 -21v-548q0 -100 71.5 -171t173.5 -71t174 70t72 172v548q0 21 21 21h63q21 0 21 -21v-1003q0 -157 -92.5 -253.5t-262.5 -96.5q-138 0 -225 67q-44 35 -70 80q-11 17 13 29l53 26q14 6 23 -6q83 -114 206 -114q109 0 179.5 70 t70.5 175v234q0 21 -12 24t-29 -14q-50 -50 -103.5 -70t-121.5 -20q-140 0 -235 91.5t-95 232.5zM242 1120q0 34 24 57t58 23t56.5 -23t22.5 -57t-23 -58t-56 -24q-34 0 -58 24t-24 58zM586 1120q0 34 24 57t58 23t57 -23t23 -57t-23 -58t-57 -24t-58 24t-24 58z" />
<glyph unicode="&#x152;" horiz-adv-x="1583" d="M150 307v678q0 147 94 236.5t252 89.5h65q54 0 139 -25h781q20 0 20 -20v-39q0 -21 -20 -21h-609q-14 0 -19 -8t1 -20q34 -67 45.5 -109t11.5 -84v-270q0 -21 21 -21h452q21 0 21 -20v-41q0 -21 -21 -21h-452q-21 0 -21 -20v-285q0 -84 -57 -196q-6 -12 -0.5 -20.5 t18.5 -8.5h609q20 0 20 -21v-41q0 -20 -20 -20h-793q-55 -20 -127 -20h-65q-157 0 -251.5 90t-94.5 237zM254 307q0 -101 69.5 -173.5t172.5 -72.5h65q100 0 173 73t73 173v678q0 103 -72.5 172.5t-173.5 69.5h-65q-104 0 -173 -69t-69 -173v-678z" />
<glyph unicode="&#x153;" horiz-adv-x="1521" d="M119 307v283q0 146 93.5 234.5t248.5 88.5q98 0 174 -35t121 -98q10 -15 22 0q46 61 117.5 97t159.5 36q161 0 255.5 -97t94.5 -236v-121q0 -21 -21 -21h-550q-21 0 -21 -20v-111q0 -107 67 -176.5t175 -69.5h30q128 0 213 115q8 11 21 4l53 -24q24 -12 12 -31 q-38 -53 -90 -88q-86 -57 -209 -57h-30q-94 0 -168 34.5t-119 96.5q-7 11 -18 0q-47 -61 -122 -96t-167 -35q-155 0 -248.5 93t-93.5 234zM223 307q0 -109 66 -177.5t172 -68.5q104 0 176 71t72 175v283q0 107 -71 174t-177 67q-107 0 -172.5 -65t-65.5 -176v-283zM813 551 q0 -17 4.5 -24t16.5 -7h446q20 0 20 21v32q0 110 -69 184t-176 74q-102 0 -172 -69.5t-70 -171.5v-39z" />
<glyph unicode="&#x178;" horiz-adv-x="847" d="M18 1270q0 16 23 16h78q10 0 18 -12l273 -553q6 -16 18 -16q8 0 18 16l265 553q8 12 18 12h80q22 0 22 -16q0 -3 -4 -15l-352 -655v-580q0 -20 -20 -20h-64q-20 0 -20 20v580l-348 655q-5 7 -5 15zM199 1503q0 31 20 53.5t49 22.5t50.5 -22.5t21.5 -53.5t-21.5 -53.5 t-50.5 -22.5t-49 22.5t-20 53.5zM508 1503q0 31 20.5 53.5t49.5 22.5t50 -22.5t21 -53.5t-21 -53.5t-50 -22.5t-49.5 22.5t-20.5 53.5z" />
<glyph unicode="&#x2c6;" horiz-adv-x="1024" d="M311 1038q0 3 4 11l154 192q8 8 16 8h56q8 0 16 -8l154 -192q4 -8 4 -11q0 -14 -17 -14h-55q-10 0 -20 10l-95 123q-10 10 -16 10q-7 0 -14 -10l-95 -123q-10 -10 -20 -10h-55q-17 0 -17 14z" />
<glyph unicode="&#x2dc;" horiz-adv-x="1024" d="M227 1108q0 4 4 12q67 111 148 111q50 0 115 -47l47 -33q58 -37 100 -37q55 0 119 53q7 7 10 7q4 0 18 -7q9 -3 9 -12q0 -6 -4 -14q-73 -111 -152 -111q-18 0 -40.5 8.5t-37.5 17t-47 29.5l-41 25q-54 33 -96 33q-54 0 -113 -49q-7 -7 -12 -7q-2 0 -4 1.5t-6 3.5l-8 4 q-9 3 -9 12z" />
<glyph unicode="&#x2000;" horiz-adv-x="810" />
<glyph unicode="&#x2001;" horiz-adv-x="1620" />
<glyph unicode="&#x2002;" horiz-adv-x="810" />
<glyph unicode="&#x2003;" horiz-adv-x="1620" />
<glyph unicode="&#x2004;" horiz-adv-x="540" />
<glyph unicode="&#x2005;" horiz-adv-x="405" />
<glyph unicode="&#x2006;" horiz-adv-x="270" />
<glyph unicode="&#x2007;" horiz-adv-x="270" />
<glyph unicode="&#x2008;" horiz-adv-x="202" />
<glyph unicode="&#x2009;" horiz-adv-x="324" />
<glyph unicode="&#x200a;" horiz-adv-x="90" />
<glyph unicode="&#x2010;" horiz-adv-x="544" d="M121 414v65q0 21 20 21h262q21 0 21 -21v-65q0 -21 -21 -21h-262q-20 0 -20 21z" />
<glyph unicode="&#x2011;" horiz-adv-x="544" d="M121 414v65q0 21 20 21h262q21 0 21 -21v-65q0 -21 -21 -21h-262q-20 0 -20 21z" />
<glyph unicode="&#x2012;" horiz-adv-x="544" d="M121 414v65q0 21 20 21h262q21 0 21 -21v-65q0 -21 -21 -21h-262q-20 0 -20 21z" />
<glyph unicode="&#x2013;" horiz-adv-x="1216" d="M121 461v37q0 20 20 20h934q21 0 21 -20v-37q0 -21 -21 -21h-934q-20 0 -20 21z" />
<glyph unicode="&#x2014;" horiz-adv-x="1728" d="M121 461v37q0 20 20 20h1526q21 0 21 -20v-37q0 -21 -21 -21h-1526q-20 0 -20 21z" />
<glyph unicode="&#x2018;" horiz-adv-x="329" d="M88 981v100q0 120 37 193q32 65 94 108q11 7 14 7q9 0 15 -13q8 -13 8 -18q0 -9 -8 -17q-76 -70 -76 -229q0 -20 21 -20h26q21 0 21 -21v-90q0 -20 -21 -20h-110q-21 0 -21 20z" />
<glyph unicode="&#x2019;" horiz-adv-x="329" d="M72 922q0 8 8 16q33 33 53.5 90t20.5 125q0 8 -5.5 14.5t-15.5 6.5h-27q-20 0 -20 20v90q0 21 20 21h111q21 0 21 -21v-96q0 -128 -48 -207q-25 -45 -61 -74q-24 -16 -29 -16q-6 0 -18 12q-10 13 -10 19z" />
<glyph unicode="&#x201a;" horiz-adv-x="329" d="M84 -219q0 8 8 16q33 33 53.5 90t20.5 125q0 8 -5.5 14.5t-15.5 6.5h-26q-21 0 -21 20v90q0 21 21 21h110q21 0 21 -21v-96q0 -118 -43 -199q-28 -54 -84 -94q-8 -4 -10 -4q-7 0 -19 12q-10 10 -10 19z" />
<glyph unicode="&#x201c;" horiz-adv-x="577" d="M88 981v100q0 134 47 211q29 54 84 90q11 7 14 7q9 0 15 -13q8 -16 8 -18q0 -9 -8 -17q-76 -70 -76 -229q0 -20 21 -20h26q21 0 21 -21v-90q0 -20 -21 -20h-110q-21 0 -21 20zM336 981v100q0 134 47 211q29 54 84 90q10 7 14 7q9 0 15 -13q8 -13 8 -18q0 -9 -8 -17 q-76 -70 -76 -229q0 -20 20 -20h27q20 0 20 -21v-90q0 -20 -20 -20h-111q-20 0 -20 20z" />
<glyph unicode="&#x201d;" horiz-adv-x="577" d="M76 907q0 9 8 17q76 70 76 229q0 21 -21 21h-26q-21 0 -21 20v90q0 21 21 21h110q21 0 21 -21v-100q0 -104 -33 -185q-32 -72 -98 -116q-9 -6 -15 -6q-8 0 -14 12q-8 16 -8 18zM324 907q0 9 8 17q76 70 76 229q0 21 -21 21h-27q-20 0 -20 20v90q0 21 20 21h111 q21 0 21 -21v-100q0 -112 -37 -191q-34 -70 -95 -110q-9 -6 -14 -6q-8 0 -14 12q-8 12 -8 18z" />
<glyph unicode="&#x201e;" horiz-adv-x="577" d="M74 -219q0 8 8 16q33 33 53.5 90t20.5 125q0 8 -5.5 14.5t-15.5 6.5h-26q-21 0 -21 20v90q0 21 21 21h110q21 0 21 -21v-96q0 -118 -43 -199q-28 -54 -84 -94q-8 -4 -11 -4q-6 0 -18 12q-10 10 -10 19zM324 -219q0 8 8 16q33 33 53.5 90t20.5 125q0 8 -5.5 14.5 t-15.5 6.5h-27q-20 0 -20 20v90q0 21 20 21h111q20 0 20 -21v-96q0 -118 -43 -199q-28 -55 -73 -88q-13 -10 -21 -10q-6 0 -18 12q-10 10 -10 19z" />
<glyph unicode="&#x2022;" horiz-adv-x="1024" d="M225 625v45q0 117 76 187.5t205 70.5h8q127 0 206 -71t79 -187v-45q0 -117 -78.5 -190t-204.5 -73h-8q-128 0 -205.5 72.5t-77.5 190.5z" />
<glyph unicode="&#x2026;" horiz-adv-x="2048" d="M373 51q0 38 27 65t65 27t65 -27t27 -65t-27 -65t-65 -27t-65 27t-27 65zM930 51q0 38 27 65t65 27t65 -27t27 -65t-27 -65t-65 -27t-65 27t-27 65zM1487 51q0 38 27 65t65 27t65 -27t27 -65t-27 -65t-65 -27t-65 27t-27 65z" />
<glyph unicode="&#x202f;" horiz-adv-x="324" />
<glyph unicode="&#x2039;" horiz-adv-x="675" d="M123 514v107q0 8 8 16l375 266q9 6 16 6q17 0 17 -22v-62q0 -7 -9 -16l-313 -225q-10 -8 -10 -17q0 -11 10 -16l313 -227q9 -9 9 -17v-61q0 -23 -17 -23q-7 0 -16 6l-375 269q-8 8 -8 16z" />
<glyph unicode="&#x203a;" horiz-adv-x="675" d="M145 246v61q0 8 9 17l311 227q10 7 10 16q0 7 -10 17l-311 225q-9 9 -9 16v62q0 22 17 22q7 0 16 -6l381 -266q8 -8 8 -16v-107q0 -8 -8 -16l-381 -269q-9 -6 -16 -6q-17 0 -17 23z" />
<glyph unicode="&#x205f;" horiz-adv-x="405" />
<glyph unicode="&#x20ac;" d="M51 453v53q0 20 21 20h147q9 0 15 6t6 15v198q0 9 -6 15t-15 6h-147q-21 0 -21 20v56q0 20 21 20h147q9 0 15 6t6 15v102q0 147 93.5 236.5t250.5 89.5h65q130 0 225 -68q22 -16 50 -45.5t28 -40.5t-14 -18q-64 -31 -66 -31q-4 0 -8 4t-9.5 11t-8.5 10q-91 94 -197 94 h-65q-104 0 -172 -69t-68 -173v-102q0 -9 6 -15t15 -6h350q20 0 20 -20v-56q0 -20 -20 -20h-350q-9 0 -15 -6t-6 -15v-198q0 -9 6 -15t15 -6h350q20 0 20 -20v-53q0 -21 -20 -21h-350q-21 0 -21 -20v-105q0 -101 68.5 -173.5t171.5 -72.5h65q131 0 211 115q6 6 12 6 q8 0 64 -26q14 -7 14 -21q0 -6 -2 -10q-101 -145 -299 -145h-65q-157 0 -250.5 90t-93.5 237v105q0 20 -21 20h-147q-21 0 -21 21z" />
<glyph unicode="&#x2122;" horiz-adv-x="804" d="M39 1079v23q0 9 2.5 12.5t11.5 3.5h217q17 0 17 -16v-23q0 -14 -17 -14h-55q-25 0 -25 -27v-280q0 -15 -16 -15h-24q-9 0 -12 3t-3 12v280q0 27 -26 27h-56q-9 0 -11.5 2.5t-2.5 11.5zM375 758v344q0 9 2.5 12.5t11.5 3.5h25q10 0 14 -8l96 -166q9 -17 22.5 -17t22.5 17 l97 166q4 8 14 8h25q16 0 16 -16v-344q0 -15 -16 -15h-25q-9 0 -11.5 3t-2.5 12v147q0 24 -19 28t-31 -15l-51 -84q-3 -7 -14 -7h-8q-8 0 -13 7l-55 84q-12 19 -28.5 15t-16.5 -28v-147q0 -15 -16 -15h-25q-9 0 -11.5 3t-2.5 12z" />
<glyph unicode="&#x25fc;" horiz-adv-x="890" d="M0 0v891h891v-891h-891z" />
</font>
</defs>
</svg>
